<ttFont>
          <CharString index="0">
            342 -12 rmoveto
            176 120 128 213 189 callsubr
            -213 120 -128 176 hvcurveto
            127 vmoveto
            -89 -56 83 131 130 56 78 89 89 56 -78 -130 -131 -56 -83 -89 hvcurveto
            return
          </CharString>
          <CharString index="1">
            16 60 18 65 17 76 16 69 rlinecurve
            4 hlineto
            17 -68 18 -77 18 -65 15 -60 rcurveline
            70 -270 rmoveto
            156 hlineto
            -204 652 rlineto
            -177 hlineto
            -204 -652 rlineto
            150 hlineto
            40 155 rlineto
            199 hlineto
            endchar
          </CharString>
          <CharString index="2">
            rmoveto
            10 41 13 50 13 63 12 53 rlinecurve
            4 hlineto
            15 -52 12 -64 13 -50 11 -41 rcurveline
            55 -214 rmoveto
            154 hlineto
            -171 528 rlineto
            -175 hlineto
            -170 -528 rlineto
            149 hlineto
            28 108 rlineto
            157 hlineto
            endchar
          </CharString>
          <CharString index="3">
            309 -12 rmoveto
            154 107 103 176 231 callgsubr
            -176 107 -103 156 hvcurveto
            121 vmoveto
            -70 -42 60 98 97 42 55 70 68 42 -55 -97 -98 -42 -60 -68 hvcurveto
            return
          </CharString>
          <CharString index="4">
            73 245 rmoveto
            -182 82 -75 150 152 77 75 182 vhcurveto
            283 -141 -292 vlineto
            -94 -27 -33 -59 -59 -29 33 94 vhcurveto
            292 -146 vlineto
            return
          </CharString>
          <CharString index="5">
            -6 20 20 -4 30 hhcurveto
            117 53 64 125 47 hvcurveto
            172 501 243 callsubr
            -60 -213 -12 -47 -11 -47 -11 -47 rlinecurve
            -4 hlineto
            -13 49 -12 47 -14 45 -71 213 rcurveline
            -148 hlineto
            191 -483 -7 -26 rlineto
            -39 -13 -25 -26 -49 hhcurveto
            -11 -13 4 2 -9 hvcurveto
            return
          </CharString>
          <CharString index="6">
            35 82 rmoveto
            -62 66 90 -32 85 hhcurveto
            156 90 94 108 92 -50 53 -79 32 hvcurveto
            -84 34 rlineto
            -56 23 -43 14 40 vvcurveto
            37 32 22 51 52 40 -19 -33 43 vhcurveto
            75 93 rlineto
            56 -56 -79 30 -75 hhcurveto
            -136 -96 -86 -108 -95 64 -56 67 -27 hvcurveto
            85 -36 rlineto
            57 -24 37 -13 -41 vvcurveto
            -39 -30 -24 -61 -54 -60 28 40 -47 vhcurveto
            return
          </CharString>
          <CharString index="7">
            rmoveto
            48 34 32 45 45 -34 32 -48 -47 -34 -32 -45 -45 34 -32 47 hvcurveto
            endchar
          </CharString>
          <CharString index="8">
            46 260 rmoveto
            -183 125 -89 155 78 73 27 38 41 vhcurveto
            251 -214 -102 85 -83 vlineto
            -9 -13 -18 -5 -21 hhcurveto
            -97 -45 59 96 103 57 57 78 44 26 -13 -25 28 hvcurveto
            79 87 rlineto
            37 -40 -59 34 -79 hhcurveto
            -154 122 callsubr
            return
          </CharString>
          <CharString index="9">
            vstem
            135 hmoveto
            182 hlineto
            61 296 11 50 8 53 8 48 rlinecurve
            4 hlineto
            7 -48 8 -53 11 -50 64 -296 rcurveline
            185 hlineto
            116 652 243 callsubr
            -45 -305 -9 -67 -9 -69 -9 -70 rlinecurve
            -4 hlineto
            -13 70 -13 70 -13 66 -70 305 rcurveline
            -125 hlineto
            -70 -305 -13 -68 -13 -69 -13 -69 rlinecurve
            -4 hlineto
            -8 69 -10 69 -8 68 -45 305 rcurveline
            -151 hlineto
            return
          </CharString>
          <CharString index="10">
            vstem
            115 hmoveto
            174 hlineto
            46 209 10 41 6 43 6 39 rlinecurve
            4 hlineto
            5 -39 7 -43 8 -41 49 -209 rcurveline
            177 hlineto
            96 527 rlineto
            -134 hlineto
            -34 -230 -6 -54 -8 -56 -6 -55 rlinecurve
            -4 hlineto
            -11 55 -12 57 -11 53 -54 230 rcurveline
            -118 hlineto
            -56 -230 -10 -54 -12 -56 -11 -55 rlinecurve
            -4 hlineto
            -7 55 -7 55 -6 55 -34 230 rcurveline
            -144 hlineto
            return
          </CharString>
          <CharString index="11">
            124 -271 150 222 123 -222 131 261 124 -408 hlineto
            return
          </CharString>
          <CharString index="12">
            160 hmoveto
            147 181 hlineto
            167 347 rlineto
            -152 hlineto
            -42 -107 -14 -41 -15 -35 -15 -42 rlinecurve
            -4 hlineto
            -14 42 -15 35 -13 41 -42 107 rcurveline
            -156 hlineto
            168 -347 rlineto
            return
          </CharString>
          <CharString index="13">
            9 46 7 46 9 53 rrcurveto
            4 hlineto
            9 -53 8 -46 10 -46 45 -198 rcurveline
            172 hlineto
            119 496 rlineto
            -136 hlineto
            -47 -230 -9 -49 -5 -48 -9 -50 rlinecurve
            -4 hlineto
            -10 50 -9 48 -12 49 -56 230 rcurveline
            -127 hlineto
            -55 -230 -12 -47 -8 -50 -9 -50 rlinecurve
            -4 hlineto
            -8 50 -6 48 -8 49 -48 230 rcurveline
            -146 hlineto
            return
          </CharString>
          <CharString index="14">
            -39 -29 -22 -16 -37 hhcurveto
            -43 -19 23 71 hvcurveto
            289 -147 return
          </CharString>
          <CharString index="15">
            -124 46 -76 108 68 46 31 50 42 vhcurveto
            3 hlineto
            return
          </CharString>
          <CharString index="16">
            rmoveto
            -80 callsubr
            198 -76 callsubr
            endchar
          </CharString>
          <CharString index="17">
            31 32 23 17 37 264 callsubr
            308 vlineto
            124 -46 76 -108 -67 return
          </CharString>
          <CharString index="18">
            153 callsubr
            29 -8 14 124 callgsubr
            -35 -3 callgsubr
            83 30 68 vvcurveto
            50 -32 123 callsubr
          </CharString>
          <CharString index="19">
            -80 hlineto
            -55 -20 12 25 17 5 9 13 11 hvcurveto
            -7 22 20 -3 18 hhcurveto
            109 86 53 114 26 -7 24 -9 15 hvcurveto
            79 107 -181 hlineto
            return
          </CharString>
          <CharString index="20">
            179 rmoveto
            39 21 36 28 26 vhcurveto
            80 -34 54 -21 -56 vvcurveto
            -53 -36 -26 -49 -53 -45 33 56 vhcurveto
            hintmask 11011000
            135 191 rmoveto
            -65 25 -44 25 52 vvcurveto
            49 32 24 39 48 29 -33 -49 -33 -14 -31 -25 -29 vhcurveto
            hintmask 11100100
            -261 -208 rmoveto
            -103 94 -71 127 135 90 76 100 84 -49 49 -61 33 vhcurveto
            4 vlineto
            hintmask 11011000
            44 29 39 49 61 vvcurveto
            105 -77 69 -116 -118 -85 -67 -108 -67 36 -46 49 -37 vhcurveto
            -4 vlineto
            hintmask 11100100
            -60 -32 -48 -47 -77 vvcurveto
            endchar
          </CharString>
          <CharString index="21">
            200 callgsubr
            107 -95 138 54 63 20 42 48 vhcurveto
            -59 93 rlineto
            -19 -24 -29 -17 -36 hhcurveto
            -64 -47 55 86 86 45 55 71 23 22 -9 -20 24 hvcurveto
            67 91 rlineto
            34 -33 -51 23 -61 hhcurveto
            -137 -121 -95 -165 hvcurveto
            return
          </CharString>
          <CharString index="22">
            rlineto
            -112 hlineto
            96 -120 rlineto
            143 hlineto
            82 callgsubr
            endchar
          </CharString>
          <CharString index="23">
            -12 -49 -30 callgsubr
            42 -39 -40 19 -50 hhcurveto
            return
          </CharString>
          <CharString index="24">
            -20 callgsubr
            66 150 8 callsubr
            146 127 -69 140 hintmask 1111011000100000
            -96 callgsubr
            hintmask 1111010011000000
            -88 callsubr
            hintmask 1110110101000000
            -50 callsubr
            hintmask 1111010011000000
            -21 callsubr
            hintmask 1111011000100000
            -46 -26 -25 -33 -41 vvcurveto
            hintmask 1110110101000000
            -64 callgsubr
            return
          </CharString>
          <CharString index="25">
            -4 -12 -72 callsubr
            return
          </CharString>
          <CharString index="26">
            135 487 135 callgsubr
            -37 -23 -15 -32 -7 vhcurveto
            12 -30 -32 7 -33 hhcurveto
            -126 -116 -95 -165 -165 116 -95 126 hvcurveto
            return
          </CharString>
          <CharString index="27">
            -67 callgsubr
            -29 -30 -40 113 callsubr
            return
          </CharString>
          <CharString index="28">
            -29 0 -72 callgsubr
            50 120 hstem
            77 147 vstem
            -63 callsubr
            return
          </CharString>
          <CharString index="29">
            173 497 133 callgsubr
            -34 -17 -15 -28 -8 vhcurveto
            24 -40 -49 13 -55 hhcurveto
            -156 -107 -98 -175 -176 107 -103 156 hvcurveto
            return
          </CharString>
          <CharString index="30">
            -60 -91 callgsubr
            return
          </CharString>
          <CharString index="31">
            hmoveto
            -80 callsubr
            return
          </CharString>
          <CharString index="32">
            rmoveto
            -156 hlineto
            -81 -120 rlineto
            return
          </CharString>
          <CharString index="33">
            77 -12 87 -6 72 vhcurveto
            4 hlineto
            64 -142 170 -325 rlineto
            151 652 -140 -230 hlineto
            return
          </CharString>
          <CharString index="34" raw="1">
            f70c4b0a 0b  
          </CharString>
          <CharString index="35">
            -71 callgsubr
            -12 -20 return
          </CharString>
          <CharString index="36">
            rmoveto
            -54 callgsubr
            198 hmoveto
            -54 callgsubr
            endchar
          </CharString>
          <CharString index="37">
            -43 callgsubr
            64 120 90 callgsubr
            return
          </CharString>
          <CharString index="38">
            -82 callsubr
            98 128 -63 63 -56 56 -56 272 callsubr
            hintmask 1010100011000000
            -106 callgsubr
            hintmask 0101100011000000
            -79 callgsubr
            hintmask 0110100011000000
            -84 callsubr
            hintmask 1010100011000000
            -31 callgsubr
            hintmask 0101100011000000
            121 326 rmoveto
            91 hlineto
            hintmask 0101010011000000
            46 65 -36 callsubr
            hintmask 0101100011000000
            47 -37 callgsubr
            return
          </CharString>
          <CharString index="39">
            -21 155 115 270 112 return
          </CharString>
          <CharString index="40">
            rmoveto
            96 47 47 73 94 vvcurveto
            83 -33 48 -61 -45 -32 -32 -50 -45 34 -28 43 3 3 0 1 3 vhcurveto
            -60 -30 -37 -60 -30 vhcurveto
            return
          </CharString>
          <CharString index="41">
            -43 -12 114 -81 -21 391 117 return
          </CharString>
          <CharString index="42">
            rmoveto
            -47 -34 -32 -45 -45 34 -32 47 48 34 32 45 45 -34 32 -48 hvcurveto
            -50 286 rmoveto
            10 41 13 50 13 63 12 53 rlinecurve
            4 hlineto
            15 -52 12 -64 13 -50 11 -41 rcurveline
            38 314 rmoveto
            44 callgsubr
            154 hlineto
            endchar
          </CharString>
          <CharString index="43">
            -47 callsubr
            vstem
            77 hmoveto
            return
          </CharString>
          <CharString index="44">
            77 hmoveto
            418 -96 callsubr
            return
          </CharString>
          <CharString index="45">
            rmoveto
            71 callsubr
            -48 -34 -32 -45 -45 34 278 callgsubr
          </CharString>
          <CharString index="46">
            -27 callgsubr
            235 81 hlineto
            125 -235 rlineto
            return
          </CharString>
          <CharString index="47">
            41 29 30 40 40 -29 30 -41 return
          </CharString>
          <CharString index="48">
            rmoveto
            94 69 77 131 130 -69 76 -94 -94 -68 -76 -130 -131 68 -77 94 hvcurveto
            82 vmoveto
            -33 -27 33 93 return
          </CharString>
          <CharString index="49">
            133 callgsubr
            -52 -43 -8 -40 -2 vhcurveto
            hintmask 11111000
            -77 callgsubr
            hintmask 11111100
            69 14 55 37 75 10 callsubr
          </CharString>
          <CharString index="50">
            221 callgsubr
            hintmask 01011110
            77 hmoveto
            135 145 hlineto
            hintmask 01101110
            -74 callgsubr
            hintmask 10011110
            -51 callsubr
            return
          </CharString>
          <CharString index="51">
            -74 21 -43 callsubr
            return
          </CharString>
          <CharString index="52">
            77 hmoveto
            175 hlineto
            159 123 75 192 191 -123 70 -169 hvcurveto
            -165 hlineto
            147 -414 rmoveto
            300 27 vlineto
            83 49 -40 -107 -109 -49 -44 -83 hvcurveto
            return
          </CharString>
          <CharString index="53">
            -59 -12 112 108 91 97 112 return
          </CharString>
          <CharString index="54">
            -14 callgsubr
            95 5 return
          </CharString>
          <CharString index="55">
            127 75 callsubr
            return
          </CharString>
          <CharString index="56">
            -66 11 -88 7 -57 vhcurveto
            -4 hlineto
            -58 126 -125 230 rlineto
            -148 hlineto
            return
          </CharString>
          <CharString index="57">
            8 -22 -27 4 -28 hhcurveto
            -107 -98 -60 -119 -58 32 -47 35 -24 hvcurveto
            -4 vlineto
            return
          </CharString>
          <CharString index="58">
            77 147 return
          </CharString>
          <CharString index="59">
            179 callgsubr
            -89 -150 rlineto
            107 hlineto
            return
          </CharString>
          <CharString index="60">
            hstem
            -49 callsubr
            return
          </CharString>
          <CharString index="61">
            -32 -8 -17 -22 -44 hhcurveto
            -44 -17 22 32 -8 hvcurveto
            -67 hlineto
            -72 7 43 -48 86 hhcurveto
            return
          </CharString>
          <CharString index="62">
            -49 -90 118 -7 -21 206 104 165 249 callgsubr
            hintmask 01110100
            22 hmoveto
            hintmask 10110100
            -54 46 72 -36 103 hhcurveto
            128 108 73 118 84 -53 55 -73 21 hvcurveto
            4 vlineto
            hintmask 01111000
            68 29 38 53 66 vvcurveto
            111 -88 66 -131 -78 -64 -31 -50 -58 vhcurveto
            74 -90 rlineto
            35 40 34 21 45 hhcurveto
            50 28 -29 -44 -51 -36 -41 -114 hvcurveto
            -104 vlineto
            hintmask 10110100
            138 33 -39 -56 -49 -41 -34 -62 -54 -47 28 37 -38 hvcurveto
            endchar
          </CharString>
          <CharString index="63">
            -49 -36 -32 178 callgsubr
            endchar
          </CharString>
          <CharString index="64">
            -21 108 106 207 107 return
          </CharString>
          <CharString index="65">
            vstem
            36 hmoveto
            472 124 -291 hlineto
            288 439 rlineto
            89 -442 -124 261 vlineto
            -288 -439 rlineto
            return
          </CharString>
          <CharString index="66">
            vstem
            36 hmoveto
            411 120 -234 hlineto
            231 321 rlineto
            87 -385 -120 208 vlineto
            -231 -321 rlineto
            return
          </CharString>
          <CharString index="67">
            rmoveto
            48 34 32 45 45 -34 46 callgsubr
          </CharString>
          <CharString index="68">
            45 -35 callsubr
            return
          </CharString>
          <CharString index="69">
            -12 -52 callsubr
            return
          </CharString>
          <CharString index="70">
            -147 hlineto
            return
          </CharString>
          <CharString index="71">
            rlineto
            4 hlineto
            return
          </CharString>
          <CharString index="72">
            -36 callgsubr
            82 30 69 vvcurveto
            41 -24 22 -34 11 vhcurveto
            return
          </CharString>
          <CharString index="73">
            6 -194 115 92 118 257 120 -12 -20 return
          </CharString>
          <CharString index="74">
            rmoveto
            -89 -56 83 131 130 56 78 89 89 56 -78 -130 -131 -56 -83 -89 hvcurveto
            hintmask 11111010
            -82 callgsubr
            hintmask 11111100
            176 120 128 213 111 -33 86 -56 58 hvcurveto
            hintmask 11111010
            64 18 42 37 65 10 callsubr
          </CharString>
          <CharString index="75">
            -218 254 78 81 60 44 82 hstem
            29 99 88 104 vstem
            130 254 rmoveto
            38 31 17 24 24 hvcurveto
            4 hlineto
            10 -33 rlineto
            83 189 hlineto
            100 -50 48 -85 -52 -49 -18 -26 -44 vhcurveto
            37 -68 rlineto
            18 32 31 12 27 hhcurveto
            32 14 -15 -29 3 hvcurveto
            -131 -12 -56 -37 -70 vvcurveto
            -55 39 -45 62 vhcurveto
            35 78 rmoveto
            -23 -14 11 19 24 22 20 66 7 hvcurveto
            -55 vlineto
            -16 -17 -14 -10 -20 hhcurveto
            endchar
          </CharString>
          <CharString index="76">
            114 rlineto
            -127 hlineto
            return
          </CharString>
          <CharString index="77">
            -49 -90 118 210 102 115 123 hstem
            82 130.5 120.5 147 vstem
            23 1 rmoveto
            -50 50 70 -41 104 hhcurveto
            124 109 82 146 137 -93 65 -109 -26 -21 -4 -10 -24 hvcurveto
            11 129 rlineto
            233 123 -360 hlineto
            -18 -330 66 -43 rlineto
            25 38 19 8 37 hhcurveto
            59 41 -38 -65 -69 -42 -38 -65 -54 -45 29 35 -38 hvcurveto
            endchar
          </CharString>
          <CharString index="78">
            103 callsubr
            96 81 callsubr
            -53 276 callgsubr
            return
          </CharString>
          <CharString index="79">
            -49 -12 119 197 103 104 124 hstem
            82 130.5 120.5 147 vstem
            23 77 rmoveto
            -50 50 70 -39 104 hhcurveto
            124 109 81 141 135 -93 62 -109 -26 -21 -4 -11 -24 hvcurveto
            11 119 rlineto
            233 124 -360 hlineto
            -18 -321 66 -42 rlineto
            24 38 19 8 37 hhcurveto
            59 41 -34 -64 -65 -42 -34 -65 -54 -45 28 35 -38 hvcurveto
            endchar
          </CharString>
          <CharString index="80">
            hlineto
            -95 -31 callsubr
            return
          </CharString>
          <CharString index="81">
            -21 callgsubr
            endchar
          </CharString>
          <CharString index="82">
            -276 54 callsubr
            84 120 111 callsubr
            return
          </CharString>
          <CharString index="83" raw="1">
            6ea96262 6e6d0b  
          </CharString>
          <CharString index="84">
            -192 254 82 181 82 hstem
            26 106 108 104 vstem
            132 432 rmoveto
            57 27 28 31 16 16 -5 -16 18 vhcurveto
            -131 vlineto
            -21 -15 -15 -8 -19 hhcurveto
            -37 -22 28 68 hvcurveto
            -106 -2 rmoveto
            -111 53 -65 84 33 30 17 22 23 vhcurveto
            4 hlineto
            7 -31 rlineto
            84 328 -80 hlineto
            -9 -32 -30 callgsubr
            27 -25 -28 14 -31 hhcurveto
            -70 -71 -64 -105 hvcurveto
            endchar
          </CharString>
          <CharString index="85">
            rmoveto
            42 81 40 77 -36 callsubr
            -6 -117 rlineto
            -41 vlineto
            154 hmoveto
            -58 233 -134 hlineto
            return
          </CharString>
          <CharString index="86">
            -32 -22 -24 -35 -36 vvcurveto
            -41 20 -26 26 -17 vhcurveto
            -4 vlineto
            return
          </CharString>
          <CharString index="87">
            -40 29 -30 41 return
          </CharString>
          <CharString index="88">
            36 248 rmoveto
            return
          </CharString>
          <CharString index="89">
            496 -37 callsubr
            return
          </CharString>
          <CharString index="90">
            262 rmoveto
            -49 -35 30 80 72 37 36 45 49 47 -33 -119 12 hvcurveto
            -48 -31 -38 -18 -37 hhcurveto
            -194 -299 rmoveto
            -37 54 43 -16 70 hhcurveto
            182 92 144 210 200 -98 126 -154 -117 -96 -84 -134 -136 72 -78 118 42 58 25 43 36 hvcurveto
            -148 -7 -54 -50 -85 hhcurveto
            -41 -30 13 23 -32 hvcurveto
            endchar
          </CharString>
          <CharString index="91">
            11 -69 rlineto
            120 -18 callsubr
            return
          </CharString>
          <CharString index="92">
            -81 30 callgsubr
            return
          </CharString>
          <CharString index="93">
            -12 121 419 -20 return
          </CharString>
          <CharString index="94">
            rmoveto
            -276 -94 276 hlineto
            endchar
          </CharString>
          <CharString index="95">
            vstem
            65 hmoveto
            143 122 hlineto
            63 71 112 -193 rlineto
            159 hlineto
            -187 292 174 204 rlineto
            -160 hlineto
            -157 -197 rlineto
            -4 402 -143 hlineto
            return
          </CharString>
          <CharString index="96">
            65 hmoveto
            147 return
          </CharString>
          <CharString index="97">
            rmoveto
            352 676 rlineto
            -85 hlineto
            -352 -676 rlineto
            return
          </CharString>
          <CharString index="98">
            77 hmoveto
            147 175 hlineto
            76 100 159 -275 rlineto
            161 hlineto
            -233 392 197 260 rlineto
            -162 hlineto
            -194 -267 rlineto
            -4 267 -37 callsubr
            return
          </CharString>
          <CharString index="99">
            10 -49 rlineto
            120 243 callgsubr
            -169 hlineto
            6 -76 rlineto
            32 -34 -33 20 -55 hhcurveto
            -105 -101 -98 -162 hvcurveto
            return
          </CharString>
          <CharString index="100">
            125 -92 152 callsubr
            return
          </CharString>
          <CharString index="101">
            42 callsubr
            52 -55 rlineto
            104 hlineto
            -95 114 262 callsubr
            return
          </CharString>
          <CharString index="102">
            6 -14 -17 4 -28 hhcurveto
            -51 -54 -32 -67 -36 hvcurveto
            -4 hlineto
            return
          </CharString>
          <CharString index="103">
            39 -55 callgsubr
            return
          </CharString>
          <CharString index="104">
            233 callgsubr
            96 150 137 callsubr
            hintmask 10011100
            -11 callsubr
            hlineto
            hintmask 11001100
            -11 callgsubr
            hintmask 10011100
            24 127 rlineto
            hintmask 11001100
            -5 callsubr
            hintmask 10101100
            -10 87 152 callgsubr
            return
          </CharString>
          <CharString index="105">
            rmoveto
            8 -12 8 -16 -18 vvcurveto
            -52 -43 -9 -40 -1 vhcurveto
            hintmask 11110100
            -80 callgsubr
            hintmask 11110110
            70 13 55 38 75 vvcurveto
            33 -15 213 callgsubr
          </CharString>
          <CharString index="106">
            77 hmoveto
            147 207 173 -207 148 528 -148 -194 -173 194 -37 callsubr
            return
          </CharString>
          <CharString index="107">
            rmoveto
            -207 153 -127 177 177 152 127 207 206 -152 124 -177 -177 -153 -123 -207 vhcurveto
            68 hmoveto
            164 115 106 147 147 115 -106 -164 -164 -115 -109 -147 -147 -115 109 164 vhcurveto
            return
          </CharString>
          <CharString index="108">
            rmoveto
            79 32 rlineto
            -45 82 -23 82 90 vvcurveto
            89 23 83 45 81 vhcurveto
            -79 32 rlineto
            -58 -88 -33 -78 -119 vvcurveto
            -120 33 -78 58 -88 vhcurveto
            endchar
          </CharString>
          <CharString index="109">
            129 callsubr
            150 hstem
            65 147 vstem
            142 callsubr
            return
          </CharString>
          <CharString index="110">
            335 vlineto
            32 31 29 16 24 264 callsubr
            335 vlineto
            32 32 28 16 25 264 callsubr
            308 vlineto
            124 -48 76 -107 -66 -46 -38 -45 -44 vhcurveto
            53 -25 -42 30 -70 hhcurveto
            -65 -44 -35 -41 -41 hvcurveto
            -4 hlineto
            return
          </CharString>
          <CharString index="111">
            48 33 32 45 45 -33 46 callgsubr
          </CharString>
          <CharString index="112">
            204 hmoveto
            148 528 179 124 -506 -124 179 hlineto
            return
          </CharString>
          <CharString index="113">
            -204 254 82 181 82 hstem
            24 106 113 105 vstem
            186 254 rmoveto
            85 77 63 109 109 -77 64 -85 -85 -77 -64 -109 -109 77 -63 85 hvcurveto
            82 vmoveto
            -39 -17 36 54 55 17 36 39 39 18 -36 -55 -54 -18 -36 -39 hvcurveto
            endchar
          </CharString>
          <CharString index="114">
            64 -11 95 -7 63 vhcurveto
            4 hlineto
            52 -151 100 -253 rlineto
            59 hlineto
            100 253 54 151 -36 callsubr
            -7 -63 -12 -95 -64 vvcurveto
            -239 137 652 -155 vlineto
            -106 -293 -39 -114 -30 callgsubr
            -39 114 -109 293 rlineto
            -156 hlineto
            return
          </CharString>
          <CharString index="115">
            hstemhm
            34 121 -107 137 -126 116 return
          </CharString>
          <CharString index="116">
            172 -151 -21 356 172 0 -20 return
          </CharString>
          <CharString index="117">
            vvcurveto
            33 -14 29 -16 18 vhcurveto
            endchar
          </CharString>
          <CharString index="118">
            54 -12 91 -7 54 vhcurveto
            4 hlineto
            49 -124 75 -181 rlineto
            48 hlineto
            75 181 50 124 -36 callsubr
            -7 -54 -12 -91 -54 vvcurveto
            -148 132 528 -149 vlineto
            -80 -215 -33 -89 -30 callgsubr
            -32 89 -83 215 rlineto
            -150 hlineto
            return
          </CharString>
          <CharString index="119">
            68 128 rmoveto
            -32 13 -25 13 28 vvcurveto
            21 18 15 22 return
          </CharString>
          <CharString index="120">
            139 callsubr
            171 147 return
          </CharString>
          <CharString index="121">
            rmoveto
            16 60 18 65 17 76 16 69 rlinecurve
            4 hlineto
            17 -68 18 -77 18 -65 15 -60 rcurveline
            return
          </CharString>
          <CharString index="122">
            74 rlineto
            -7 -10 -13 -7 -13 hhcurveto
            -21 -21 12 26 return
          </CharString>
          <CharString index="123">
            -69 callgsubr
            93 -21 return
          </CharString>
          <CharString index="124">
            -61 -91 callgsubr
            return
          </CharString>
          <CharString index="125">
            114 hlineto
            7 132 17 87 89 113 rrcurveto
            58 -294 -90 174 vlineto
            -68 -103 234 callsubr
          </CharString>
          <CharString index="126">
            213 callsubr
            54 276 callsubr
            -54 119 callsubr
            return
          </CharString>
          <CharString index="127">
            -20 hstemhm
            42 108 -73 147 hintmask 11101000
            77 hmoveto
            hintmask 11110000
            39 hlineto
            -29 -21 -45 -44 -64 40 callsubr
            hintmask 11101000
            -33 74 rlineto
            -7 -9 -14 -7 -14 hhcurveto
            -20 -21 12 26 34 21 34 53 22 hvcurveto
            return
          </CharString>
          <CharString index="128">
            148 vstem
            34 callsubr
            return
          </CharString>
          <CharString index="129">
            77 hmoveto
            405 124 -258 528 -37 callsubr
            return
          </CharString>
          <CharString index="130">
            125 116 95 165 83 -29 65 -45 44 hvcurveto
            return
          </CharString>
          <CharString index="131">
            49 36 32 45 45 -36 32 -49 return
          </CharString>
          <CharString index="132">
            128 -63 63 -56 56 -56 118 hstemhm
            return
          </CharString>
          <CharString index="133">
            195 rmoveto
            84 145 18 36 18 40 16 36 rlinecurve
            4 hlineto
            -2 -40 -4 -61 -41 vvcurveto
            -115 vlineto
            210 hmoveto
            -73 383 -180 hlineto
            -232 -394 rlineto
            -101 275 -161 137 161 73 vlineto
            endchar
          </CharString>
          <CharString index="134">
            -72 rmoveto
            -48 -34 -32 -45 -45 34 -32 48 47 34 32 45 45 -34 32 -47 hvcurveto
            return
          </CharString>
          <CharString index="135">
            73 148 228 142 return
          </CharString>
          <CharString index="136">
            73 146 174 141 return
          </CharString>
          <CharString index="137">
            rlineto
            120 496 return
          </CharString>
          <CharString index="138">
            -21 388 120 return
          </CharString>
          <CharString index="139">
            7 196 callgsubr
            -34 hhcurveto
            -35 198 callsubr
            return
          </CharString>
          <CharString index="140">
            -75 -61 -40 -67 -40 24 -27 34 -24 vhcurveto
            -4 vlineto
            return
          </CharString>
          <CharString index="141">
            77 hmoveto
            147 272 225 -272 148 652 -148 -251 -225 251 -37 callsubr
            return
          </CharString>
          <CharString index="142">
            -301 114 callsubr
            return
          </CharString>
          <CharString index="143">
            184 callsubr
            72 callgsubr
            -52 -45 -45 -91 -10 hvcurveto
            return
          </CharString>
          <CharString index="144">
            45 -11 13 -14 -17 vvcurveto
            -26 -35 -13 -47 -33 callgsubr
            94 171 callgsubr
            return
          </CharString>
          <CharString index="145">
            72 268 74 hstemhm
            38 98 -84 95 82 96 -85 97 hintmask 11100100
            136 return
          </CharString>
          <CharString index="146">
            31 -166 rmoveto
            -87 callgsubr
            -198 150 callsubr
          </CharString>
          <CharString index="147">
            69 callgsubr
            25 vhcurveto
            return
          </CharString>
          <CharString index="148">
            -22 29 callgsubr
            return
          </CharString>
          <CharString index="149">
            213 callsubr
            55 -36 callsubr
            return
          </CharString>
          <CharString index="150">
            326 rmoveto
            99 hlineto
            53 79 -36 callsubr
            54 175 callgsubr
            -117 hlineto
            return
          </CharString>
          <CharString index="151">
            rmoveto
            42 28 30 40 39 -28 30 -42 -41 -28 -30 -39 -40 28 -30 41 hvcurveto
            199 hmoveto
            -54 callgsubr
            endchar
          </CharString>
          <CharString index="152">
            rmoveto
            182 callgsubr
            198 hmoveto
            182 callgsubr
            endchar
          </CharString>
          <CharString index="153">
            hstem
            288 147 vstem
            16 106 rmoveto
            -79 45 66 -39 99 hhcurveto
            144 65 103 126 hvcurveto
            435 -147 -423 vlineto
            -87 -28 -27 -53 -33 -34 21 44 -24 vhcurveto
            return
          </CharString>
          <CharString index="154">
            30 -8 14 124 callgsubr
            -35 -3 callgsubr
            82 30 68 vvcurveto
            return
          </CharString>
          <CharString index="155">
            40 -67 -67 -46 -40 -62 -62 46 -40 67 hvcurveto
            55 vmoveto
            -23 -18 19 28 28 18 19 23 return
          </CharString>
          <CharString index="156">
            154 callsubr
            -44 86 callgsubr
            -74 rlineto
            57 -3 return
          </CharString>
          <CharString index="157">
            8 -22 -36 10 -41 hhcurveto
            -134 -49 -86 -105 hvcurveto
            return
          </CharString>
          <CharString index="158">
            -64 callsubr
            147 return
          </CharString>
          <CharString index="159">
            147 135 callsubr
            return
          </CharString>
          <CharString index="160">
            -39 113 callsubr
            return
          </CharString>
          <CharString index="161">
            21 187 callsubr
            return
          </CharString>
          <CharString index="162">
            hstem
            249 147 vstem
            16 90 rmoveto
            -68 41 59 -34 89 hhcurveto
            129 62 89 107 hvcurveto
            344 -147 -335 vlineto
            -65 -23 -18 -38 -28 -27 19 33 -19 vhcurveto
            return
          </CharString>
          <CharString index="163">
            51 38 40 52 244 callgsubr
            return
          </CharString>
          <CharString index="164">
            -166 -139 rmoveto
            -61 62 -50 return
          </CharString>
          <CharString index="165">
            290 -12 rmoveto
            142 95 124 208 208 -95 119 -142 -143 -94 -118 -209 -208 94 -124 143 hvcurveto
            119 vmoveto
            return
          </CharString>
          <CharString index="166">
            82 98 62 90 82 hstemhm
            217 106 -92 106 hintmask 11101000
            27 return
          </CharString>
          <CharString index="167">
            rmoveto
            76 hlineto
            28 callgsubr
            return
          </CharString>
          <CharString index="168">
            73 callgsubr
            endchar
          </CharString>
          <CharString index="169">
            -72 -34 callgsubr
            return
          </CharString>
          <CharString index="170">
            rmoveto
            -156 hlineto
            -80 102 callgsubr
            return
          </CharString>
          <CharString index="171">
            70 callsubr
            11 hvcurveto
            return
          </CharString>
          <CharString index="172">
            -30 callgsubr
            -53 return
          </CharString>
          <CharString index="173">
            rmoveto
            283 94 -283 hlineto
            endchar
          </CharString>
          <CharString index="174">
            93 callgsubr
            -30 -22 22 return
          </CharString>
          <CharString index="175">
            101 callsubr
            -82 hlineto
            return
          </CharString>
          <CharString index="176">
            86 callsubr
            30 -41 -41 return
          </CharString>
          <CharString index="177">
            29 147 callgsubr
            40 45 90 return
          </CharString>
          <CharString index="178">
            48 33 32 45 45 -33 32 -48 return
          </CharString>
          <CharString index="179">
            117 97 102 116 120 return
          </CharString>
          <CharString index="180">
            43 67 72 3 hvcurveto
            return
          </CharString>
          <CharString index="181">
            141 callgsubr
            164 callsubr
            121 callsubr
            return
          </CharString>
          <CharString index="182">
            422 127 return
          </CharString>
          <CharString index="183">
            67 46 38 60 59 -46 39 -67 -67 -45 -39 -59 -60 45 -38 67 hvcurveto
            return
          </CharString>
          <CharString index="184">
            31 33 33 27 -31 -93 224 callsubr
          </CharString>
          <CharString index="185">
            127 132 120 170 127 return
          </CharString>
          <CharString index="186">
            38 36 78 9 hvcurveto
            -64 hlineto
            return
          </CharString>
          <CharString index="187">
            91 -91 135 -90 90 hstemhm
            return
          </CharString>
          <CharString index="188">
            150 rlineto
            -99 hlineto
            return
          </CharString>
          <CharString index="189">
            262 rmoveto
            114 hlineto
            7 132 17 87 89 113 rrcurveto
            58 -294 -91 174 vlineto
            -68 -102 -32 -76 -7 -121 rrcurveto
            return
          </CharString>
          <CharString index="190">
            81 callsubr
            -53 36 callgsubr
          </CharString>
          <CharString index="191">
            100 callsubr
            -154 hlineto
            return
          </CharString>
          <CharString index="192">
            -31 -8 -18 -22 -44 hhcurveto
            -43 -18 22 31 -8 hvcurveto
            return
          </CharString>
          <CharString index="193">
            41 29 30 40 39 -29 return
          </CharString>
          <CharString index="194">
            140 58 140 return
          </CharString>
          <CharString index="195">
            -36 callsubr
            53 return
          </CharString>
          <CharString index="196">
            49 71 168 callsubr
            -71 7 42 -49 87 hhcurveto
            endchar
          </CharString>
          <CharString index="197">
            126 -103 129 148 119 -110 137 hintmask 11100100
            return
          </CharString>
          <CharString index="198">
            127 callsubr
            57 -3 return
          </CharString>
          <CharString index="199">
            -21 381 111.5 -111.5 115 return
          </CharString>
          <CharString index="200">
            73 callsubr
            -66 hlineto
            -37 -6 -22 -30 return
          </CharString>
          <CharString index="201">
            144 callsubr
            114 return
          </CharString>
          <CharString index="202">
            -73 -569 rmoveto
            147 -18 callsubr
            return
          </CharString>
          <CharString index="203">
            14 30 hhcurveto
            59 27 -45 -89 -102 -41 -44 -51 return
          </CharString>
          <CharString index="204">
            122 callgsubr
            -19 -4 vhcurveto
            return
          </CharString>
          <CharString index="205">
            -36 -25 -27 -34 242 callsubr
            hvcurveto
            return
          </CharString>
          <CharString index="206">
            -134 -12 109 302 109 return
          </CharString>
          <CharString index="207">
            103 callsubr
            118 -45 callgsubr
            return
          </CharString>
          <CharString index="208">
            rmoveto
            62 callgsubr
            return
          </CharString>
          <CharString index="209">
            -229 59 191 -21 return
          </CharString>
          <CharString index="210">
            rmoveto
            117 hlineto
            return
          </CharString>
          <CharString index="211">
            vvcurveto
            64 34 30 53 32 24 -14 -28 23 vhcurveto
            80 80 rlineto
            52 -45 -54 29 -74 hhcurveto
            -124 -90 -79 -126 return
          </CharString>
          <CharString index="212">
            rmoveto
            133 vlineto
            19 18 16 8 19 hhcurveto
            36 18 -26 -58 -67 -26 -28 -31 -16 -17 5 14 -17 hvcurveto
            endchar
          </CharString>
          <CharString index="213">
            272 callgsubr
            hintmask 11101100
            216 callgsubr
            return
          </CharString>
          <CharString index="214">
            78 vstem
            183 56 rmoveto
            55 44 -111 152 111 152 -55 44 -134 -144 rlineto
            -104 vlineto
            return
          </CharString>
          <CharString index="215">
            592 rmoveto
            82 callgsubr
            -112 hlineto
            193 callgsubr
            return
          </CharString>
          <CharString index="216">
            rmoveto
            90 hlineto
            96 118 callsubr
            90 hlineto
            95 151 rlineto
            -116 hlineto
            endchar
          </CharString>
          <CharString index="217">
            rmoveto
            90 hlineto
            95 118 callsubr
            91 hlineto
            95 151 rlineto
            -117 hlineto
            endchar
          </CharString>
          <CharString index="218">
            51 callsubr
            528 -37 callsubr
            return
          </CharString>
          <CharString index="219">
            -11 -19 vvcurveto
            -18 -20 -7 -25 -5 vhcurveto
            endchar
          </CharString>
          <CharString index="220">
            -20 callsubr
            hvcurveto
            return
          </CharString>
          <CharString index="221">
            21 152 callsubr
            return
          </CharString>
          <CharString index="222">
            -30 66 rlineto
            -6 -12 -11 -6 -12 hhcurveto
            -23 -20 12 26 30 19 35 53 20 hvcurveto
            496 -147 vlineto
            return
          </CharString>
          <CharString index="223">
            rmoveto
            64 5 51 23 58 vvcurveto
            45 159 callgsubr
            16 -10 -19 vvcurveto
            -17 return
          </CharString>
          <CharString index="224">
            158 75 hstem
            214 96 vstem
            134 return
          </CharString>
          <CharString index="225">
            151 rlineto
            -117 hlineto
            102 -151 rmoveto
            return
          </CharString>
          <CharString index="226">
            rlineto
            105 -27 callsubr
            return
          </CharString>
          <CharString index="227">
            rmoveto
            -277 -94 277 hlineto
            endchar
          </CharString>
          <CharString index="228">
            52 45 45 91 10 hvcurveto
            return
          </CharString>
          <CharString index="229">
            88 callgsubr
            hvcurveto
            return
          </CharString>
          <CharString index="230">
            25 -89 9 vhcurveto
            endchar
          </CharString>
          <CharString index="231">
            47 138 rmoveto
            return
          </CharString>
          <CharString index="232">
            -21 548 153 -153 222 137 callsubr
            40.5 90.5 return
          </CharString>
          <CharString index="233">
            209 callsubr
            -95 150 rlineto
            -117 hlineto
            endchar
          </CharString>
          <CharString index="234">
            154 callsubr
            -44 34 -124 4 vhcurveto
            -17 -74 rlineto
            return
          </CharString>
          <CharString index="235">
            44 -54 163 callgsubr
            75 hlineto
            32 7 return
          </CharString>
          <CharString index="236">
            35 callsubr
            98 return
          </CharString>
          <CharString index="237">
            236 0 141 511 -20 return
          </CharString>
          <CharString index="238">
            129 hstem
            41 126 vstem
            41 return
          </CharString>
          <CharString index="239">
            145 callsubr
            -12 -20 return
          </CharString>
          <CharString index="240">
            116 -85 -21 680 -20 return
          </CharString>
          <CharString index="241">
            -17 26 32 -5 hvcurveto
            -82 hlineto
            return
          </CharString>
          <CharString index="242">
            vstem
            -11 callsubr
            return
          </CharString>
          <CharString index="243">
            35 -124 3 vhcurveto
            return
          </CharString>
          <CharString index="244">
            hstemhm
            65 147 return
          </CharString>
          <CharString index="245">
            -245 201 104 hstem
            43 246 vstem
            43 201 rmoveto
            246 104 -246 hlineto
            endchar
          </CharString>
          <CharString index="246">
            hstemhm
            39 151 return
          </CharString>
          <CharString index="247">
            26 6 13 12 17 hhcurveto
            hintmask 11111011
            186 callsubr
            hintmask 11110111
            44 40 36 78 9 hvcurveto
            return
          </CharString>
          <CharString index="248">
            73 rmoveto
            49 36 32 45 45 -36 31 -49 -49 -36 -31 178 callgsubr
            endchar
          </CharString>
          <CharString index="249">
            -11 callsubr
            -18 callsubr
            return
          </CharString>
          <CharString index="250">
            rmoveto
            24 callsubr
            return
          </CharString>
          <CharString index="251">
            39 220 callsubr
            return
          </CharString>
          <CharString index="252">
            -21 383 125 return
          </CharString>
          <CharString index="253">
            574 150 hstem
            return
          </CharString>
          <CharString index="254">
            -79 rlineto
            99 hlineto
            return
          </CharString>
          <CharString index="255">
            -28 callgsubr
            98 150 131 callgsubr
            return
          </CharString>
          <CharString index="256">
            34 -124 4 50 callgsubr
            -7 -25 -4 vhcurveto
            return
          </CharString>
          <CharString index="257">
            hmoveto
            -87 callgsubr
            endchar
          </CharString>
          <CharString index="258">
            95 -118 rlineto
            82 hlineto
            endchar
          </CharString>
          <CharString index="259">
            -21 496 -20 return
          </CharString>
          <CharString index="260">
            rmoveto
            -28 -54 rlineto
            return
          </CharString>
          <CharString index="261">
            30 68 vvcurveto
            54 return
          </CharString>
          <CharString index="262">
            269 callsubr
            179 hmoveto
            99 hlineto
            90 -45 callgsubr
            return
          </CharString>
          <CharString index="263">
            68 67.5 -67.5 71 -71 145 137 callsubr
            return
          </CharString>
          <CharString index="264">
            rmoveto
            553 2 hlineto
            -274 522 -30 callgsubr
            -275 -522 rlineto
            endchar
          </CharString>
          <CharString index="265">
            hintmask 11101000
            77 hmoveto
            147 528 -37 callsubr
            return
          </CharString>
          <CharString index="266">
            153 callsubr
            30 -8 13 124 callgsubr
            return
          </CharString>
          <CharString index="267">
            hvcurveto
            75 hlineto
            32 7 15 13 17 30 36 -45 return
          </CharString>
          <CharString index="268">
            rmoveto
            283 93 -283 hlineto
            endchar
          </CharString>
          <CharString index="269">
            -110 54 callsubr
            return
          </CharString>
          <CharString index="270">
            104 vstem
            42 262 rmoveto
            104 return
          </CharString>
          <CharString index="271">
            31 35 -45 54 hhcurveto
            return
          </CharString>
          <CharString index="272">
            hstemhm
            47 140 return
          </CharString>
          <CharString index="273">
            41 hlineto
            -25 -20 -40 -41 -58 253 callgsubr
            return
          </CharString>
          <CharString index="274">
            -231 256 78 67 59 62 79 40 100 hstem
            24 97 116 87 vstem
            return
          </CharString>
          <CharString index="275">
            8 hvcurveto
            -80 hlineto
            35 callgsubr
            return
          </CharString>
          <CharString index="276">
            -61 183 callgsubr
          </CharString>
          <CharString index="277">
            114 callgsubr
            451 hlineto
            return
          </CharString>
          <CharString index="278">
            hstemhm
            56 163 -154 147 return
          </CharString>
          <CharString index="279">
            -36 -17 237 callgsubr
            return
          </CharString>
          <CharString index="280">
            hstem
            165 109 vstem
            165 return
          </CharString>
          <CharString index="281">
            134 callgsubr
            -7 return
          </CharString>
          <CharString index="282">
            33 7 11 12 17 hhcurveto
            return
          </CharString>
          <CharString index="283">
            115 278 115 return
          </CharString>
          <CharString index="284">
            30 37 -6 hvcurveto
            -65 hlineto
            return
          </CharString>
          <CharString index="285">
            -189 94 116 -21 return
          </CharString>
          <CharString index="286">
            hstemhm
            81 178 -160.5 143 -130 117 hintmask 01001000
            return
          </CharString>
          <CharString index="287">
            -39 -55 -25 -42 -33 hvcurveto
            148 5 56 50 70 hhcurveto
            37 40 -21 -24 return
          </CharString>
          <CharString index="288">
            -9 -69 callgsubr
            60 247 callgsubr
            return
          </CharString>
          <CharString index="289">
            rlineto
            113 hlineto
            -96 -45 callgsubr
            -144 hlineto
            -96 -120 rlineto
            endchar
          </CharString>
          <CharString index="290">
            hstem
            -169 237 callsubr
            -99 return
          </CharString>
          <CharString index="291">
            121 callsubr
            -75 hlineto
            -33 -7 return
          </CharString>
          <CharString index="292">
            -126 -216 hvcurveto
            return
          </CharString>
          <CharString index="293">
            28 29 -38 48 hhcurveto
            return
          </CharString>
          <CharString index="294">
            -21 528 -20 return
          </CharString>
          <CharString index="295">
            225 callsubr
            252 callsubr
            return
          </CharString>
          <CharString index="296">
            212 -120 123 -176 -176 -120 -122 -213 return
          </CharString>
          <CharString index="297">
            -109 hlineto
            -44 -27 -45 -18 -68 -13 rrcurveto
            -91 119 vlineto
            endchar
          </CharString>
          <CharString index="298">
            -21 652 -20 return
          </CharString>
          <CharString index="299">
            168.5 -20 hstem
            200.5 109 vstem
            return
          </CharString>
          <CharString index="300">
            -35 -17 -32 hhcurveto
            -209 -278 rmoveto
            -40 40 62 -36 84 hhcurveto
            return
          </CharString>
          <CharString index="301">
            -299 -196 115 577 -20 return
          </CharString>
          <CharString index="302">
            37 25 27 35 34 -25 27 -37 hvcurveto
            return
          </CharString>
          <CharString index="303">
            41 53 callgsubr
            return
          </CharString>
          <CharString index="304">
            110 hstemhm
            135 109 return
          </CharString>
          <CharString index="305">
            81 callgsubr
            -80 hlineto
            return
          </CharString>
          <CharString index="306">
            4 hlineto
            52 -55 rlineto
            104 hlineto
            return
          </CharString>
          <CharString index="307">
            87 42 49 71 8 hvcurveto
            return
          </CharString>
          <CharString index="308">
            -28 -30 -40 -40 28 -30 return
          </CharString>
          <CharString index="309">
            24 153 2 69 rlineto
            return
          </CharString>
          <CharString index="310">
            -72 2 43 -67 94 hhcurveto
            return
          </CharString>
          <CharString index="311">
            rmoveto
            261 callgsubr
            return
          </CharString>
          <CharString index="312">
            460 104 -460 hlineto
            return
          </CharString>
          <CharString index="313">
            -93 -27 -33 -33 hvcurveto
            return
          </CharString>
          <CharString index="314" raw="1">
            77edf72a 120b  
          </CharString>
          <CharString index="315">
            36 -45 53 hhcurveto
            return
          </CharString>
          <CharString index="316">
            78 rmoveto
            99 hlineto
            53 195 callgsubr
            return
          </CharString>
          <CharString index="317">
            230 -10 58 538 89 hstem
            74 58 512 89 vstem
            return
          </CharString>
          <CharString index="318">
            75 hlineto
            33 7 15 12 17 224 callgsubr
          </CharString>
          <CharString index="319">
            95 118 rlineto
            -109 hlineto
            endchar
          </CharString>
          <CharString index="320">
            rmoveto
            104 hlineto
            52 return
          </CharString>
          <CharString index="321">
            10 hvcurveto
            -75 hlineto
            return
          </CharString>
          <CharString index="322">
            30 35 -45 53 hhcurveto
            53 196 callsubr
            return
          </CharString>
          <CharString index="323">
            262 432 130 callgsubr
            104 return
          </CharString>
          <CharString index="324">
            70 callsubr
            10 hvcurveto
            -75 hlineto
            return
          </CharString>
          <CharString index="325">
            149 hstem
            158 147 vstem
            158 hmoveto
            147 return
          </CharString>
          <CharString index="326">
            -40 16 hvcurveto
            hintmask 11110000
            36 21 21 return
          </CharString>
          <CharString index="327">
            -55 callgsubr
            52 return
          </CharString>
          <CharString index="328">
            -96 0 240 callsubr
            return
          </CharString>
          <CharString index="329">
            185 hstem
            61 178 vstem
            61 return
          </CharString>
          <CharString index="330">
            -38 -35 -79 -9 hvcurveto
            endchar
          </CharString>
          <CharString index="331">
            206 callsubr
            endchar
          </CharString>
          <CharString index="332">
            27 6 13 11 17 return
          </CharString>
          <CharString index="333">
            -32 -8 -10 -12 -17 return
          </CharString>
          <CharString index="334">
            -41 -29 -30 -40 return
          </CharString>
          <CharString index="335">
            724 -48 callsubr
            return
          </CharString>
          <CharString index="336">
            43 -56 93 hhcurveto
            -146 146 rmoveto
            64 hlineto
            27 return
          </CharString>
          <CharString index="337">
            -22 -69 callgsubr
            60 -47 callgsubr
            return
          </CharString>
          <CharString index="338">
            354 332 hstem
            78.5 143 return
          </CharString>
          <CharString index="339">
            4 vhcurveto
            -14 -62 rlineto
            51 -4 15 -10 -19 vvcurveto
            -18 return
          </CharString>
          <CharString index="340">
            -73 3 43 -66 93 hhcurveto
            endchar
          </CharString>
          <CharString index="341">
            -32 -76 -7 -121 rrcurveto
            endchar
          </CharString>
          <CharString index="342">
            114 300 114 return
          </CharString>
          <CharString index="343">
            87 42 275 callgsubr
            return
          </CharString>
          <CharString index="344">
            87 callsubr
            vstem
            return
          </CharString>
          <CharString index="345">
            -48 86 hhcurveto
            87 42 48 return
          </CharString>
          <CharString index="346">
            -32 -5 -17 -26 -35 hhcurveto
            return
          </CharString>
          <CharString index="347">
            120 288 120 return
          </CharString>
          <CharString index="348">
            -72 3 43 -67 return
          </CharString>
          <CharString index="349">
            -35 25 -27 36 return
          </CharString>
          <CharString index="350">
            rlineto
            -141 hlineto
            return
          </CharString>
          <CharString index="351">
            hlineto
            20 165 rlineto
            -84 hlineto
            -21 -165 rlineto
            return
          </CharString>
          <CharString index="352">
            -59 -69 callgsubr
            72 124 528 -20 return
          </CharString>
          <CharString index="353">
            -12 119 131 104 195 110 hstem
            return
          </CharString>
          <CharString index="354">
            -90 118 130 104 218 110 hstem
            return
          </CharString>
          <CharString index="355">
            59 hlineto
            61 28 -19 -38 -39 -29 -22 -60 hvcurveto
            return
          </CharString>
          <CharString index="356">
            21 -21 152 112 245 126 hstem
            return
          </CharString>
          <CharString index="357">
            49 hvcurveto
            -76 58 rlineto
            -36 -21 -23 -21 -28 hhcurveto
            return
          </CharString>
          <CharString index="358">
            vlineto
            146 77 rlineto
            81 vlineto
            -146 -77 rlineto
            return
          </CharString>
          <CharString index="359">
            186 callsubr
            44 40 36 78 8 hvcurveto
            return
          </CharString>
          <CharString index="360">
            702 66 40 14 hstem
            -136 272 vstem
            return
          </CharString>
          <CharString index="361">
            99 -45 callgsubr
            -114 hlineto
            return
          </CharString>
          <CharString index="362">
            111 36 76 -38 76 hstemhm
            return
          </CharString>
          <CharString index="363">
            rmoveto
            93 43 66 73 3 hvcurveto
            return
          </CharString>
          <CharString index="364" raw="1">
            fbe8fb50 15f3060b  
          </CharString>
          <CharString index="365">
            -250 1000 hstem
            86 96 return
          </CharString>
          <CharString index="366">
            -21 528 124 return
          </CharString>
          <CharString index="367">
            -233 -152 78 return
          </CharString>
          <CharString index="368">
            22 -11 -19 vvcurveto
            return
          </CharString>
          <CharString index="369">
            rlineto
            -126 hlineto
            return
          </CharString>
          <CharString index="370">
            -11 -19 vvcurveto
            -19 return
          </CharString>
          <CharString index="371">
            hhcurveto
            42 19 -22 -72 hvcurveto
            -289 147 return
          </CharString>
          <CharString index="372">
            574 128 -56 118 hstemhm
            -139 return
          </CharString>
          <CharString index="373">
            44 21 -21 207 127 194 -20 return
          </CharString>
          <CharString index="374">
            40 -26 555 hstem
            250 117 vstem
            return
          </CharString>
          <CharString index="375">
            124 rmoveto
            63 8 54 20 65 vvcurveto
            47 return
          </CharString>
          <CharString index="376">
            -45 callgsubr
            -125 hlineto
            -63 -120 rlineto
            return
          </CharString>
          <CharString index="377">
            120 hstemhm
            11 callgsubr
            return
          </CharString>
          <CharString index="378">
            259 callsubr
            hstemhm
            204 148 return
          </CharString>
          <CharString index="379">
            118 13 callsubr
            return
          </CharString>
          <CharString index="380">
            101 78 -211 hlineto
            endchar
          </CharString>
          <CharString index="381" raw="1">
            c7670a0b   
          </CharString>
          <CharString index="382">
            61 -36 callsubr
            return
          </CharString>
          <CharString index="383">
            -36 callsubr
            52 return
          </CharString>
          <CharString index="384">
            -222 rlineto
            endchar
          </CharString>
        <CharString name=".notdef">
          113 0 91 477 92 hstem
          80 98 333 99 vstem
          80 hmoveto
          530 660 -530 hlineto
          98 -505 rmoveto
          371 vlineto
          95 -186 rlineto
          144 hmoveto
          94 186 rlineto
          -371 vlineto
          -248 -64 rmoveto
          39 77 41 98 -36 callsubr
          41 -98 39 -77 rlineto
          -84 323 rmoveto
          -43 95 -31 59 rlineto
          152 hlineto
          -32 -59 -42 -95 rlineto
          endchar
        </CharString>
        <CharString name="A">
          -75 callgsubr
          206 callgsubr
          214 270 rmoveto
          -106 callsubr
        </CharString>
        <CharString name="A.sc">
          -56 callsubr
          165 callgsubr
          198 214 -105 callsubr
        </CharString>
        <CharString name="A.sups">
          -190 362 80 174 78 hstem
          -5 399 vstem
          147 442 rmoveto
          10 38 10 42 14 50 10 44 rlinecurve
          2 hlineto
          12 -43 12 -51 11 -42 10 -38 rcurveline
          45 -180 rmoveto
          111 hlineto
          -137 432 rlineto
          -125 hlineto
          -137 -432 rlineto
          106 hlineto
          26 100 rlineto
          131 hlineto
          endchar
        </CharString>
        <CharString name="AE">
          268 0 124 25 114 11 123 131 124 -111 111 hstemhm
          386 147 hintmask 11101100
          261 263 rmoveto
          42 93 26 57 26 64 27 64 rlinecurve
          4 -278 hlineto
          hintmask 10110100
          147 -139 rmoveto
          150 211 123 -211 131 250 124 -487 vlineto
          -310 -652 rlineto
          155 hlineto
          hintmask 11110100
          68 149 rlineto
          177 hlineto
          hintmask 10110100
          -149 407 124 vlineto
          endchar
        </CharString>
        <CharString name="AE.sc">
          164 0 114 -7 105 3 107 92 114 hstemhm
          331 147 hintmask 01011000
          235 212 rmoveto
          32 69 20 41 19 49 21 50 rlinecurve
          4 -209 hlineto
          hintmask 10111000
          147 -98 rmoveto
          101 170 107 -170 92 200 114 -437 vlineto
          -255 -528 rlineto
          152 hlineto
          hintmask 01011000
          49 107 rlineto
          144 hlineto
          hintmask 10111000
          -107 357 114 vlineto
          endchar
        </CharString>
        <CharString name="Aacute">
          -75 callgsubr
          50 120 206 callgsubr
          445 822 -75 callsubr
          118 hlineto
          -112 -432 rmoveto
          -106 callsubr
        </CharString>
        <CharString name="Aacute.sc">
          -56 callsubr
          64 120 165 callgsubr
          410 712 63 callsubr
          -93 -378 -105 callsubr
        </CharString>
        <CharString name="Abreve">
          -75 callgsubr
          50 120 206 callgsubr
          339 822 rmoveto
          -5 callgsubr
          200 callsubr
          -206 -552 rmoveto
          -106 callsubr
        </CharString>
        <CharString name="Abreve.sc">
          -56 callsubr
          64 120 165 callgsubr
          305 712 rmoveto
          35 callgsubr
          -72 7 42 -48 87 hhcurveto
          88 41 48 72 8 hvcurveto
          -187 -498 -105 callsubr
        </CharString>
        <CharString name="Acircumflex">
          -75 callgsubr
          50 120 206 callgsubr
          281 763 rmoveto
          -61 callgsubr
          113 hlineto
          -14 -432 rmoveto
          -106 callsubr
        </CharString>
        <CharString name="Acircumflex.sc">
          -56 callsubr
          64 120 165 callgsubr
          246 652 rmoveto
          155 callgsubr
          112 hlineto
          5 -378 -105 callsubr
        </CharString>
        <CharString name="Adieresis">
          -75 callgsubr
          48 140 hstem
          114 237 callsubr
          382 700 rmoveto
          -80 callsubr
          -198 -76 callsubr
          30 -430 rmoveto
          -106 callsubr
        </CharString>
        <CharString name="Adieresis.sc">
          -56 callsubr
          62 140 hstem
          79 140 59 139 vstem
          347 590 rmoveto
          42 201 callgsubr
          -42 -41 201 callsubr
          41 hvcurveto
          -198 -76 callsubr
          49 -376 -105 callsubr
        </CharString>
        <CharString name="Agrave">
          -75 callgsubr
          50 120 206 callgsubr
          358 702 rmoveto
          -15 callsubr
          120 -120 rlineto
          -27 -432 rmoveto
          -106 callsubr
        </CharString>
        <CharString name="Agrave.sc">
          -56 callsubr
          64 120 165 callgsubr
          323 592 rmoveto
          -15 callsubr
          120 -120 rlineto
          -8 -378 -105 callsubr
        </CharString>
        <CharString name="Amacron">
          -75 callgsubr
          68 93 hstem
          142 282 vstem
          424 813 rmoveto
          -282 -93 282 hlineto
          -210 -450 rmoveto
          -106 callsubr
        </CharString>
        <CharString name="Amacron.sc">
          -56 callsubr
          81 94 hstem
          107 283 vstem
          390 703 rmoveto
          -283 -94 283 hlineto
          -192 -395 -105 callsubr
        </CharString>
        <CharString name="Aogonek">
          -4 -223 95 149 -68 callsubr
          hstem
          382 107 vstem
          214 270 14 callsubr
          214 -384 rmoveto
          -7 -10 -14 -7 -15 hhcurveto
          -21 -18 13 25 40 35 45 55 5 hvcurveto
          -204 652 rlineto
          -177 hlineto
          -204 -652 rlineto
          150 hlineto
          40 155 rlineto
          199 hlineto
          40 -155 rlineto
          40 hlineto
          -33 -19 -48 -48 -62 vvcurveto
          -60 50 145 callgsubr
          26 vhcurveto
          endchar
        </CharString>
        <CharString name="Aogonek.sc">
          -74 -223 95 149 -43 callsubr
          hstem
          312 108 vstem
          198 214 rmoveto
          10 41 13 50 13 63 12 53 rlinecurve
          4 hlineto
          15 -52 12 -64 13 -50 11 -41 rcurveline
          197 -328 rmoveto
          -7 -10 -14 -7 -16 hhcurveto
          -21 -17 13 25 40 35 45 55 5 hvcurveto
          -171 528 rlineto
          44 callgsubr
          38 hlineto
          -33 -19 -49 -48 -62 40 callsubr
          endchar
        </CharString>
        <CharString name="Aring">
          -75 callgsubr
          45 55 86 55 hstem
          170 72 82 72 vstem
          283 838 rmoveto
          22 19 -17 -26 -27 -19 -16 -22 -23 241 callgsubr
          23 hvcurveto
          -141 167 callgsubr
          -69 -427 rmoveto
          -106 callsubr
        </CharString>
        <CharString name="Aring.sc">
          -56 callsubr
          59 55 86 55 hstem
          136 72 81 72 vstem
          248 728 rmoveto
          23 235 callgsubr
          -23 -22 241 callgsubr
          22 hvcurveto
          -141 vmoveto
          76 callsubr
          -50 -373 -105 callsubr
        </CharString>
        <CharString name="Atilde">
          -75 callgsubr
          51 136 hstem
          113 75 190 75 vstem
          378 839 rmoveto
          -33 -7 74 callsubr
          -239 -569 rmoveto
          -106 callsubr
        </CharString>
        <CharString name="Atilde.sc">
          -56 callsubr
          65 135 165 callgsubr
          344 728 rmoveto
          -32 -8 -14 277 callgsubr
          128 callsubr
          15 13 17 30 147 callgsubr
          44 45 90 11 hvcurveto
          -221 -514 -105 callsubr
        </CharString>
        <CharString name="B">
          28 0 215 callgsubr
          172 144 -112 144 hintmask 11110100
          150 callgsubr
          hintmask 11111000
          43 callgsubr
          hintmask 11110100
          81 40 -25 -57 -59 -41 -30 -80 hvcurveto
          endchar
        </CharString>
        <CharString name="B.sc">
          -31 0 107 118 92 104 107 hstemhm
          -49 callsubr
          130 134 -116 141 hintmask 11110100
          156 callgsubr
          hintmask 11111000
          47 callgsubr
          hintmask 11110100
          248 callsubr
          endchar
        </CharString>
        <CharString name="B.sups">
          -170 262 79 108 72 94 79 hstemhm
          50 104 110 101 -81 102 hintmask 11110100
          50 262 rmoveto
          166 hlineto
          94 76 40 88 57 -32 32 -62 12 hvcurveto
          2 vlineto
          hintmask 11111000
          51 16 22 41 38 vvcurveto
          82 -71 24 -91 vhcurveto
          -153 hlineto
          104 -173 rmoveto
          94 45 vlineto
          44 21 -14 -29 -30 -20 -21 -46 hvcurveto
          -44 -180 rmoveto
          108 vlineto
          hintmask 11110100
          53 hlineto
          52 25 -16 -35 -37 -25 -20 -52 hvcurveto
          endchar
        </CharString>
        <CharString name="C">
          5 -38 callsubr
          214 callgsubr
          -88 callgsubr
          endchar
        </CharString>
        <CharString name="C.sc">
          -57 -55 callgsubr
          hstem
          46 149 vstem
          -86 callgsubr
          endchar
        </CharString>
        <CharString name="C.sups">
          -187 254 88 270 90 hstem
          30 107 vstem
          30 474 rmoveto
          -145 92 -75 111 58 49 21 44 37 vhcurveto
          -56 62 rlineto
          -24 -21 -26 -15 -35 hhcurveto
          -62 -40 50 85 83 46 52 59 29 20 -12 -19 23 hvcurveto
          56 63 rlineto
          32 -28 -46 26 -56 hhcurveto
          -113 -97 -86 -142 hvcurveto
          endchar
        </CharString>
        <CharString name="Cacute">
          5 -38 callsubr
          38 120 214 callgsubr
          -88 callgsubr
          459 500 -75 callsubr
          118 hlineto
          endchar
        </CharString>
        <CharString name="Cacute.sc">
          -57 -15 callgsubr
          hstem
          46 149 vstem
          -86 callgsubr
          423 452 -75 callsubr
          118 hlineto
          endchar
        </CharString>
        <CharString name="Ccaron">
          5 -38 callsubr
          38 120 214 callgsubr
          -88 callgsubr
          352 500 -83 callgsubr
        </CharString>
        <CharString name="Ccaron.sc">
          -57 -15 callgsubr
          hstem
          46 149 vstem
          -86 callgsubr
          317 452 rmoveto
          -54 -61 rlineto
          -4 hlineto
          -53 61 -85 callsubr
        </CharString>
        <CharString name="Ccedilla">
          5 240 callgsubr
          546 127 214 callgsubr
          132 106 vstem
          479 173 rmoveto
          -35 -32 -39 -23 -53 hhcurveto
          -96 -62 78 134 131 71 79 91 45 32 -19 -30 33 hvcurveto
          81 91 rlineto
          45 -44 -68 40 -81 hhcurveto
          -168 -143 -126 -216 -198 112 -113 147 -20 hvcurveto
          -34 -67 rlineto
          37 callsubr
          -34 11 vhcurveto
          15 33 65 9 59 32 45 53 rlinecurve
          endchar
        </CharString>
        <CharString name="Ccedilla.sc">
          -57 -221 59 175 -21 427 121 hstem
          46 149 92 105 vstem
          418 151 rmoveto
          -24 -24 -32 -18 -44 hhcurveto
          -74 -49 54 102 97 57 57 70 37 25 -12 -25 28 hvcurveto
          80 88 rlineto
          38 -40 -61 32 -70 hhcurveto
          -146 88 callgsubr
          -161 95 -89 121 -18 hvcurveto
          -34 -68 rlineto
          -39 callsubr
          14 33 58 7 52 25 40 43 rlinecurve
          endchar
        </CharString>
        <CharString name="Ccircumflex">
          5 -38 callsubr
          38 120 214 callgsubr
          -88 callgsubr
          242 380 rmoveto
          53 61 rlineto
          -61 callgsubr
          endchar
        </CharString>
        <CharString name="Ccircumflex.sc">
          -57 -15 callgsubr
          hstem
          46 149 vstem
          -86 callgsubr
          206 332 rmoveto
          53 60 rlineto
          155 callgsubr
          endchar
        </CharString>
        <CharString name="Cdotaccent">
          5 -38 callsubr
          37 154 214 callgsubr
          61 170 -88 callgsubr
          297 379 143 callsubr
          -44 callsubr
        </CharString>
        <CharString name="Cdotaccent.sc">
          -57 -55 callgsubr
          51 154 hstemhm
          46 149 27 170 hintmask 11110000
          -86 callgsubr
          hintmask 11111000
          261 331 rmoveto
          50 35 32 45 45 -35 32 -50 -44 callsubr
        </CharString>
        <CharString name="D">
          58 0 119 414 119 -47 callsubr
          213 151 vstem
          -57 callgsubr
          endchar
        </CharString>
        <CharString name="D.sc">
          3 0 235 callsubr
          -47 callsubr
          159 151 vstem
          -55 callsubr
          endchar
        </CharString>
        <CharString name="D.sups">
          -150 262 82 267 83 hstem
          50 104 136 107 vstem
          50 262 rmoveto
          131 hlineto
          129 87 69 150 148 -87 65 -135 hvcurveto
          -125 hlineto
          104 -350 rmoveto
          267 17 vlineto
          72 47 -27 -104 -102 -47 -34 -71 hvcurveto
          endchar
        </CharString>
        <CharString name="Dcaron">
          58 0 119 414 119 50 120 -47 callsubr
          213 151 vstem
          -57 callgsubr
          121 703 -83 callgsubr
        </CharString>
        <CharString name="Dcaron.sc">
          1 0 235 callsubr
          64 120 -47 callsubr
          159 151 vstem
          -55 callsubr
          100 598 -83 callgsubr
        </CharString>
        <CharString name="Dcroat">
          -19 callgsubr
        </CharString>
        <CharString name="Dcroat.sc">
          -10 callgsubr
        </CharString>
        <CharString name="E">
          -29 0 -72 callgsubr
          hstem
          77 147 vstem
          -63 callsubr
          endchar
        </CharString>
        <CharString name="E.sc">
          -43 callgsubr
          90 callgsubr
          endchar
        </CharString>
        <CharString name="E.sups">
          -208 262 86 93 86 81 86 130 callgsubr
          284 86 -180 93 148 86 -148 81 174 86 -278 hlineto
          endchar
        </CharString>
        <CharString name="Eacute">
          -79 callsubr
          373 170 63 callsubr
          endchar
        </CharString>
        <CharString name="Eacute.sc">
          -70 callsubr
          354 184 -75 callsubr
          118 hlineto
          endchar
        </CharString>
        <CharString name="Ebreve">
          -79 callsubr
          211 50 rmoveto
          88 41 89 callsubr
        </CharString>
        <CharString name="Ebreve.sc">
          -70 callsubr
          192 64 rmoveto
          87 42 48 72 8 hvcurveto
          -80 hlineto
          -26 -6 -17 -20 -34 hhcurveto
          -34 198 callsubr
          -72 7 42 -48 87 hhcurveto
          endchar
        </CharString>
        <CharString name="Ecaron">
          -79 callsubr
          267 170 rmoveto
          -54 -61 rlineto
          -4 hlineto
          -53 61 -85 callsubr
        </CharString>
        <CharString name="Ecaron.sc">
          -70 callsubr
          248 184 rmoveto
          -54 -61 rlineto
          -4 hlineto
          -53 61 -85 callsubr
        </CharString>
        <CharString name="Ecircumflex">
          -79 callsubr
          156 50 -26 callsubr
        </CharString>
        <CharString name="Ecircumflex.sc">
          -70 callsubr
          137 64 rmoveto
          53 60 rlineto
          155 callgsubr
          endchar
        </CharString>
        <CharString name="Edieresis">
          -29 0 -72 callgsubr
          48 140 hstemhm
          -49 callsubr
          -105 140 59 139 hintmask 11101000
          -63 callsubr
          hintmask 11110110
          112 48 rmoveto
          -80 callsubr
          198 hmoveto
          42 201 callgsubr
          -42 -41 201 callsubr
          41 hvcurveto
          endchar
        </CharString>
        <CharString name="Edieresis.sc">
          -43 callgsubr
          62 140 hstemhm
          -49 callsubr
          -124 87 callsubr
          hintmask 11101000
          -38 callgsubr
          hintmask 11110110
          93 62 -91 callsubr
        </CharString>
        <CharString name="Edotaccent">
          -29 0 -72 callgsubr
          49 154 hstemhm
          -49 callsubr
          -21 171 hintmask 11101000
          -63 callsubr
          hintmask 11110100
          211 49 rmoveto
          50 36 32 45 45 -36 32 -50 -44 callsubr
        </CharString>
        <CharString name="Edotaccent.sc">
          -43 callgsubr
          63 154 hstemhm
          -49 callsubr
          -40 170 hintmask 11101000
          -38 callgsubr
          hintmask 11110100
          192 63 rmoveto
          50 35 32 45 45 -35 32 -50 -44 callsubr
        </CharString>
        <CharString name="Egrave">
          -79 callsubr
          169 50 103 callsubr
          -15 callsubr
          endchar
        </CharString>
        <CharString name="Egrave.sc">
          -70 callsubr
          150 64 103 callsubr
          -15 callsubr
          endchar
        </CharString>
        <CharString name="Emacron">
          -29 0 -72 callgsubr
          68 93 hstemhm
          -49 callsubr
          -77 283 hintmask 11111000
          -63 callsubr
          hintmask 11110100
          70 68 161 callsubr
        </CharString>
        <CharString name="Emacron.sc">
          -43 callgsubr
          81 94 hstemhm
          -49 callsubr
          -96 283 hintmask 11111000
          -38 callgsubr
          hintmask 11110100
          51 81 66 callsubr
        </CharString>
        <CharString name="Eogonek">
          -29 -223 95 128 -72 callgsubr
          -47 callsubr
          72 108 vstem
          77 hmoveto
          298 hlineto
          -34 -21 -45 -47 -61 69 callgsubr
          26 vhcurveto
          -34 15 callsubr
          44 40 44 46 2 hvcurveto
          5 -96 callsubr
          endchar
        </CharString>
        <CharString name="Eogonek.sc">
          -78 -223 95 128 114 101 107 92 114 hstemhm
          -49 callsubr
          23 108 hintmask 01111000
          77 hmoveto
          hintmask 11111100
          249 hlineto
          -34 -21 -45 -47 -61 40 callsubr
          -33 15 callsubr
          44 40 44 46 2 hvcurveto
          5 114 hlineto
          hintmask 01111000
          -89 callgsubr
          endchar
        </CharString>
        <CharString name="Eth">
          -19 callgsubr
        </CharString>
        <CharString name="Eth.sc">
          -10 callgsubr
        </CharString>
        <CharString name="Euro">
          -49 -12 114 113 75 50 74 119 114 hstem
          74 148 vstem
          438 156 rmoveto
          -35 -26 -28 -19 -38 hhcurveto
          -56 -39 40 73 -18 hvcurveto
          172 75 -182 hlineto
          -1 9 0 10 10 7 0 7 7 vvcurveto
          223 74 -214 hlineto
          76 16 39 43 57 hhcurveto
          35 26 -18 -25 25 hvcurveto
          82 79 rlineto
          50 -43 -60 28 -60 hhcurveto
          -133 -101 -85 -149 -31 hvcurveto
          -62 -5 rlineto
          -68 54 vlineto
          -1 -9 0 -8 -9 vvcurveto
          -9 0 -8 1 -9 vhcurveto
          -54 -4 rlineto
          -69 62 vlineto
          -149 30 99 -78 125 hhcurveto
          72 62 33 59 48 hvcurveto
          endchar
        </CharString>
        <CharString name="F">
          -53 21 -21 253 124 151 124 51 callsubr
          253 226 124 -226 151 264 124 -411 hlineto
          endchar
        </CharString>
        <CharString name="F.sc">
          -101 21 -21 192 110 106 120 51 callsubr
          192 185 110 -185 106 215 120 -362 hlineto
          endchar
        </CharString>
        <CharString name="F.sups">
          -223 426 86 96 86 130 callgsubr
          104 164 150 86 -150 96 176 86 -280 hlineto
          endchar
        </CharString>
        <CharString name="G">
          84 callgsubr
          214 callgsubr
          253 130 vstem
          -101 callgsubr
          endchar
        </CharString>
        <CharString name="G.sc">
          56 callgsubr
          hstem
          46 149 194 129 vstem
          -99 callsubr
          endchar
        </CharString>
        <CharString name="G.sups">
          -146 254 88 82 84 104 90 hstem
          30 107 163 94 vstem
          30 475 rmoveto
          -145 95 -76 120 60 55 26 27 34 vhcurveto
          201 -164 -84 70 -70 vlineto
          -8 -10 -16 -4 -18 hhcurveto
          -80 -39 51 86 84 46 49 65 38 20 -11 -20 21 hvcurveto
          59 66 rlineto
          29 -33 -44 26 -61 hhcurveto
          -120 -98 -83 -144 hvcurveto
          endchar
        </CharString>
        <CharString name="Gbreve">
          84 callgsubr
          38 120 214 callgsubr
          253 130 vstem
          -101 callgsubr
          321 380 rmoveto
          200 callsubr
          -81 hlineto
          -5 callgsubr
          endchar
        </CharString>
        <CharString name="Gbreve.sc">
          56 callgsubr
          52 120 hstem
          46 149 194 129 vstem
          -99 callsubr
          274 332 rmoveto
          87 42 48 72 32 callsubr
          -72 8 41 -48 88 hhcurveto
          endchar
        </CharString>
        <CharString name="Gcaron">
          84 callgsubr
          38 120 214 callgsubr
          253 130 vstem
          -101 callgsubr
          376 500 -83 callgsubr
        </CharString>
        <CharString name="Gcaron.sc">
          56 callgsubr
          52 120 hstem
          46 149 194 129 vstem
          -99 callsubr
          329 452 204 callsubr
          -54 61 -85 callsubr
        </CharString>
        <CharString name="Gcircumflex">
          84 callgsubr
          38 120 214 callgsubr
          253 130 vstem
          -101 callgsubr
          266 380 rmoveto
          53 61 rlineto
          -61 callgsubr
          endchar
        </CharString>
        <CharString name="Gcircumflex.sc">
          56 callgsubr
          52 120 hstem
          46 149 194 129 vstem
          -99 callsubr
          218 332 rmoveto
          54 60 88 callsubr
          -60 183 callgsubr
        </CharString>
        <CharString name="Gdotaccent">
          84 callgsubr
          37 154 137 callgsubr
          85 170 -2 130 hintmask 11101010
          -101 callgsubr
          hintmask 11111100
          321 379 143 callsubr
          -44 callsubr
        </CharString>
        <CharString name="Gdotaccent.sc">
          56 callgsubr
          51 154 hstemhm
          46 149 40 170 -16 129 hintmask 11101010
          -99 callsubr
          hintmask 11111100
          274 331 25 callgsubr
        </CharString>
        <CharString name="H">
          97 21 -21 272 129 251 -20 -47 callsubr
          225 21 callsubr
          endchar
        </CharString>
        <CharString name="H.sc">
          266 callsubr
          -47 callsubr
          173 148 vstem
          -1 callsubr
          endchar
        </CharString>
        <CharString name="H.sups">
          -125 440 89 hstem
          50 104 145 104 vstem
          50 262 rmoveto
          104 178 145 -178 104 432 -104 -165 -145 165 -104 hlineto
          endchar
        </CharString>
        <CharString name="Hbar">
          135 21 -21 272 129 85 68 -68 71 -71 166 hstemhm
          97 147 225 148 hintmask 11001110
          469 401 rmoveto
          -225 85 225 hlineto
          hintmask 11010110
          218 71 rmoveto
          -70 hlineto
          hintmask 11001110
          95 -148 vlineto
          hintmask 11010110
          -95 -225 vlineto
          hintmask 11001110
          95 -147 vlineto
          hintmask 11100110
          -95 vlineto
          -72 -6 rlineto
          hintmask 11001110
          -65 72 -486 147 272 225 -272 148 486 70 vlineto
          endchar
        </CharString>
        <CharString name="Hbar.sc">
          83 21 -21 215 111 61 67.5 -67.5 70 -70 141 hstemhm
          97 147 173 148 hintmask 11001110
          417 326 rmoveto
          -173 61 173 hlineto
          hintmask 11010110
          219 70 rmoveto
          -71 hlineto
          hintmask 11001110
          71 -148 vlineto
          hintmask 11010110
          -71 -173 vlineto
          hintmask 11001110
          71 -147 vlineto
          hintmask 11100110
          -71 vlineto
          -72 -5 rlineto
          hintmask 11001110
          -65 72 -387 147 215 173 -215 148 387 71 vlineto
          endchar
        </CharString>
        <CharString name="Hcircumflex">
          97 21 -21 272 129 251 -20 70 120 -47 callsubr
          225 21 callsubr
          204 50 rmoveto
          53 61 rlineto
          -61 callgsubr
          endchar
        </CharString>
        <CharString name="Hcircumflex.sc">
          266 callsubr
          84 120 -47 callsubr
          173 148 vstem
          -1 callsubr
          178 64 rmoveto
          54 60 88 callsubr
          -60 183 callgsubr
        </CharString>
        <CharString name="I">
          -276 54 callgsubr
          112 callgsubr
          endchar
        </CharString>
        <CharString name="I.a">
          -181 18 callgsubr
          hstem
          124 147 vstem
          -78 callgsubr
          endchar
        </CharString>
        <CharString name="I.sc">
          -276 54 callsubr
          111 callsubr
          endchar
        </CharString>
        <CharString name="I.sups">
          -374 216 callsubr
          432 -104 hlineto
          endchar
        </CharString>
        <CharString name="Iacute">
          -25 callgsubr
          236 170 -75 callsubr
          117 hlineto
          endchar
        </CharString>
        <CharString name="Iacute.a">
          -181 18 callgsubr
          50 120 hstem
          124 147 vstem
          -78 callgsubr
          308 698 -75 callsubr
          117 hlineto
          endchar
        </CharString>
        <CharString name="Iacute.sc">
          -25 callsubr
          236 184 -75 callsubr
          117 hlineto
          endchar
        </CharString>
        <CharString name="Icircumflex">
          -25 callgsubr
          18 106 callgsubr
        </CharString>
        <CharString name="Icircumflex.a">
          -181 18 callgsubr
          50 120 hstem
          124 147 vstem
          -78 callgsubr
          91 578 rmoveto
          53 61 rlineto
          -61 callgsubr
          endchar
        </CharString>
        <CharString name="Icircumflex.sc">
          -25 callsubr
          18 64 rmoveto
          54 60 88 callsubr
          -60 183 callgsubr
        </CharString>
        <CharString name="Idieresis">
          -276 54 callgsubr
          68 140 hstemhm
          -18 139 -44 147 -44 140 158 callgsubr
          hintmask 11110100
          -25 48 45 callgsubr
        </CharString>
        <CharString name="Idieresis.a">
          -181 18 callgsubr
          48 140 hstemhm
          29 140 -45 147 -44 140 hintmask 11001000
          -78 callgsubr
          hintmask 11110100
          47 576 -91 callsubr
        </CharString>
        <CharString name="Idieresis.sc">
          -276 54 callsubr
          82 140 hstemhm
          -18 139 -44 147 -44 140 158 callsubr
          hintmask 11110100
          -25 62 45 callgsubr
        </CharString>
        <CharString name="Idotaccent">
          -276 54 callgsubr
          69 154 112 callgsubr
          74 49 25 callgsubr
        </CharString>
        <CharString name="Idotaccent.a">
          -181 18 callgsubr
          49 154 hstemhm
          113 170 -159 147 hintmask 11001000
          -78 callgsubr
          hintmask 11110000
          146 577 143 callsubr
          -44 callsubr
        </CharString>
        <CharString name="Idotaccent.sc">
          -276 54 callsubr
          83 154 hstemhm
          66 170 -159 147 158 callsubr
          hintmask 11110000
          74 63 25 callgsubr
        </CharString>
        <CharString name="Igrave">
          -25 callgsubr
          31 50 103 callsubr
          -80 30 callgsubr
          endchar
        </CharString>
        <CharString name="Igrave.a">
          -181 18 callgsubr
          50 120 hstem
          124 147 vstem
          -78 callgsubr
          103 578 rmoveto
          118 hlineto
          -15 callsubr
          endchar
        </CharString>
        <CharString name="Igrave.sc">
          -25 callsubr
          31 64 103 callsubr
          -80 30 callgsubr
          endchar
        </CharString>
        <CharString name="Imacron">
          -276 54 callgsubr
          88 93 112 callgsubr
          -68 68 161 callsubr
        </CharString>
        <CharString name="Imacron.a">
          -181 18 callgsubr
          68 93 hstemhm
          57 282 -215 147 hintmask 11101000
          -78 callgsubr
          hintmask 11110000
          5 596 87 callgsubr
        </CharString>
        <CharString name="Imacron.sc">
          -276 54 callsubr
          101 94 111 callsubr
          -68 81 66 callsubr
        </CharString>
        <CharString name="Iogonek">
          -276 239 callgsubr
          652 20 callsubr
          262 callgsubr
          vlineto
          endchar
        </CharString>
        <CharString name="Iogonek.a">
          -181 -223 95 128 124 404 124 hstemhm
          89 108 -73 147 hintmask 11110000
          52 hmoveto
          109 hlineto
          -27 -20 -45 -48 -61 40 callsubr
          -33 15 callsubr
          30 20 32 34 28 hvcurveto
          hintmask 01101000
          93 124 -73 404 73 124 -292 -124 72 -404 hlineto
          hintmask 01110000
          -72 hlineto
          endchar
        </CharString>
        <CharString name="Iogonek.sc">
          -276 239 callgsubr
          528 20 callsubr
          528 -147 vlineto
          endchar
        </CharString>
        <CharString name="Itilde">
          -276 54 callgsubr
          71 136 hstemhm
          -20 75 22 147 22 75 158 callgsubr
          137 51 rmoveto
          hintmask 11111100
          52 45 45 91 10 74 callgsubr
          54 hhcurveto
          endchar
        </CharString>
        <CharString name="Itilde.a">
          -181 18 callgsubr
          51 136 hstemhm
          52 51 21 147 22 75 hintmask 11001000
          52 hmoveto
          292 124 -73 404 73 124 hlineto
          hintmask 11011000
          -292 -124 hlineto
          hintmask 11101000
          72 -404 -72 hlineto
          209 579 rmoveto
          hintmask 11111100
          36 callsubr
          75 hlineto
          33 7 14 12 17 hhcurveto
          hintmask 11101000
          164 callsubr
          endchar
        </CharString>
        <CharString name="Itilde.sc">
          -276 54 callsubr
          85 135 111 callsubr
          137 65 rmoveto
          52 45 53 callgsubr
          -32 -7 -15 -12 -17 -30 227 callgsubr
          -53 49 callgsubr
          54 hhcurveto
          endchar
        </CharString>
        <CharString name="J">
          -68 -24 callgsubr
          46 callsubr
          endchar
        </CharString>
        <CharString name="J.sc">
          -107 -12 122 418 -20 55 callsubr
          endchar
        </CharString>
        <CharString name="J.sups">
          -233 254 88 hstem
          192 104 vstem
          9 334 rmoveto
          -54 31 44 -26 67 hhcurveto
          101 44 70 84 hvcurveto
          286 -104 -277 vlineto
          -58 -18 -17 -34 -23 -22 14 30 -15 vhcurveto
          endchar
        </CharString>
        <CharString name="Jcircumflex">
          -68 -24 callgsubr
          70 120 46 callsubr
          188 522 -26 callsubr
        </CharString>
        <CharString name="Jcircumflex.sc">
          -107 -12 122 418 -20 84 120 55 callsubr
          147 430 rmoveto
          54 60 88 callsubr
          -60 183 callgsubr
        </CharString>
        <CharString name="K">
          37 54 callgsubr
          hstem
          77 147 vstem
          -9 callsubr
          endchar
        </CharString>
        <CharString name="K.sc">
          -22 54 callsubr
          hstem
          77 147 vstem
          -9 callgsubr
          endchar
        </CharString>
        <CharString name="K.sups">
          -163 216 callsubr
          117 hlineto
          49 64 104 -181 rlineto
          113 hlineto
          -156 260 132 172 rlineto
          -115 hlineto
          -124 -171 rlineto
          -3 171 -104 hlineto
          endchar
        </CharString>
        <CharString name="L">
          -59 0 124 528 -20 hstem
          77 147 211 callgsubr
          endchar
        </CharString>
        <CharString name="L.sc">
          -106 0 120 408 -20 hstem
          77 147 vstem
          23 callgsubr
          endchar
        </CharString>
        <CharString name="L.sups">
          -228 262 86 130 callgsubr
          275 86 -171 346 -104 hlineto
          endchar
        </CharString>
        <CharString name="Lacute">
          -59 0 124 528 -20 70 120 hstem
          77 147 211 callgsubr
          239 170 -75 callsubr
          118 hlineto
          endchar
        </CharString>
        <CharString name="Lacute.sc">
          -106 0 120 408 -20 84 120 hstem
          77 147 vstem
          23 callgsubr
          240 184 -75 callsubr
          117 hlineto
          endchar
        </CharString>
        <CharString name="Lcaron">
          -59 0 124 386 142 -142 222 -80 136 callgsubr
          126 91 hintmask 10011100
          22 callsubr
          hintmask 11001100
          339 -142 rmoveto
          hintmask 10101100
          24 152 2 70 rlineto
          -95 hlineto
          hintmask 11001100
          6 277 callsubr
        </CharString>
        <CharString name="Lcaron.sc">
          -106 0 120 286 122 -122 222 -100 136 callgsubr
          107 91 hintmask 10011100
          23 callgsubr
          hintmask 11001100
          320 -122 rmoveto
          hintmask 10101100
          202 callsubr
          -95 hlineto
          hintmask 11001100
          6 277 callsubr
        </CharString>
        <CharString name="Ldot">
          -59 0 124 112 185 231 -20 -47 callsubr
          97 178 211 callgsubr
          244 -323 rmoveto
          -52 38 -41 51 51 38 41 52 52 -38 164 callgsubr
          endchar
        </CharString>
        <CharString name="Ldot.sc">
          -106 0 120 106 185 117 -20 -47 callsubr
          70 177 vstem
          23 callgsubr
          217 -210 rmoveto
          -52 38 -40 51 51 37 40 52 52 -37 41 -51 -51 -38 -41 -52 vhcurveto
          endchar
        </CharString>
        <CharString name="Lslash">
          -53 0 124 528 -20 hstem
          84 148 vstem
          232 124 rmoveto
          154 vlineto
          173 95 rlineto
          114 vlineto
          -173 -95 rlineto
          260 -148 -328 vlineto
          -73 -43 rlineto
          -114 vlineto
          73 43 rlineto
          -210 405 124 vlineto
          endchar
        </CharString>
        <CharString name="Lslash.sc">
          -106 0 120 408 -20 hstem
          84 148 vstem
          232 120 rmoveto
          96 vlineto
          143 78 rlineto
          109 vlineto
          -143 -78 rlineto
          203 -148 -271 vlineto
          -73 -43 rlineto
          -109 vlineto
          73 43 rlineto
          -148 358 120 vlineto
          endchar
        </CharString>
        <CharString name="M">
          185 21 -21 461 191 0 -20 hstemhm
          77 135 336 137 hintmask 10111000
          77 hmoveto
          135 239 hlineto
          hintmask 11011000
          7 callsubr
          endchar
        </CharString>
        <CharString name="M.sc">
          108 21 -21 347 181 0 -20 hstemhm
          77 132 267 132 hintmask 10111000
          77 hmoveto
          132 148 hlineto
          hintmask 11011000
          11 callsubr
          endchar
        </CharString>
        <CharString name="M.sups">
          -63 262 432 -134 134 hstemhm
          50 95 223 97 hintmask 10110000
          50 262 rmoveto
          95 150 hlineto
          44 -8 64 -5 40 vhcurveto
          2 hlineto
          37 -99 65 -162 rlineto
          40 hlineto
          hintmask 01110000
          66 162 37 99 rlineto
          3 hlineto
          -5 -40 -9 -64 -44 vvcurveto
          -150 97 432 -110 vlineto
          -69 -189 -25 -74 rlineto
          -3 hlineto
          -26 74 -73 189 rlineto
          -109 hlineto
          endchar
        </CharString>
        <CharString name="N">
          88 0 91 callgsubr
          231 140 hintmask 01011100
          80 callgsubr
          hintmask 01101100
          -74 callsubr
          hintmask 10011100
          -50 callgsubr
          endchar
        </CharString>
        <CharString name="N.sc">
          29 0 92 callgsubr
          182 135 hintmask 01011100
          77 hmoveto
          135 145 hlineto
          hintmask 01101100
          -74 callgsubr
          hintmask 10011100
          -51 callsubr
          endchar
        </CharString>
        <CharString name="N.sups">
          -131 262 128 -128 432 hstemhm
          50 97 153 97 hintmask 01110000
          50 262 rmoveto
          97 146 hlineto
          50 -6 59 -5 49 vhcurveto
          2 hlineto
          43 -94 rlineto
          hintmask 10110000
          108 -210 rlineto
          108 432 -97 -144 hlineto
          -52 6 -61 6 -47 vhcurveto
          -3 hlineto
          -43 96 -108 208 rlineto
          -108 hlineto
          endchar
        </CharString>
        <CharString name="Nacute">
          88 0 9 callgsubr
          70 120 hstemhm
          77 242 callgsubr
          140 hintmask 01011110
          80 callgsubr
          hintmask 01101110
          -74 callsubr
          hintmask 10011110
          -50 callgsubr
          418 170 63 callsubr
          endchar
        </CharString>
        <CharString name="Nacute.sc">
          29 0 9 callsubr
          84 120 -57 callsubr
          397 184 -75 callsubr
          117 hlineto
          endchar
        </CharString>
        <CharString name="Ncaron">
          88 0 9 callgsubr
          70 120 hstemhm
          77 242 callgsubr
          140 hintmask 01011110
          80 callgsubr
          hintmask 01101110
          -74 callsubr
          hintmask 10011110
          -50 callgsubr
          312 170 rmoveto
          -54 -61 rlineto
          -4 hlineto
          -53 61 -85 callsubr
        </CharString>
        <CharString name="Ncaron.sc">
          29 0 9 callsubr
          84 120 -57 callsubr
          290 184 204 callsubr
          -54 61 -85 callsubr
        </CharString>
        <CharString name="Ntilde">
          88 0 9 callgsubr
          71 136 hstemhm
          77 140 -54 75 210 140 hintmask 01011101
          80 callgsubr
          hintmask 01101101
          -74 callsubr
          hintmask 10011101
          -50 callgsubr
          319 51 rmoveto
          53 44 45 91 11 hvcurveto
          -75 246 callgsubr
          hintmask 01011011
          -52 -45 -45 -91 -10 hvcurveto
          75 hlineto
          33 7 15 12 17 hhcurveto
          hintmask 10011101
          224 callgsubr
        </CharString>
        <CharString name="Ntilde.sc">
          29 0 9 callsubr
          85 135 -57 callsubr
          298 65 rmoveto
          52 45 53 callgsubr
          -32 -7 -14 -12 -18 -30 -36 44 -53 163 callgsubr
          74 hlineto
          32 8 14 13 17 164 callsubr
          endchar
        </CharString>
        <CharString name="O">
          -52 callgsubr
          214 callgsubr
          290 151 vstem
          -107 callsubr
          endchar
        </CharString>
        <CharString name="O.sc">
          -4 callsubr
          hstem
          11 callgsubr
          vstem
          -104 callsubr
          endchar
        </CharString>
        <CharString name="O.sups">
          -116 254 88 270 90 hstem
          30 107 187 107 vstem
          230 254 rmoveto
          119 82 85 141 140 -82 82 -119 -119 -81 -81 -141 -141 81 -85 119 hvcurveto
          88 vmoveto
          -58 -35 55 83 84 35 48 58 58 36 -48 -84 -83 -36 -55 -58 hvcurveto
          endchar
        </CharString>
        <CharString name="OE">
          294 0 119 -119 -72 callgsubr
          -119 119 137 callgsubr
          216 148 hintmask 01110110
          46 329 rmoveto
          -224 141 -105 186 vhcurveto
          445 124 -257 150 208 123 -208 131 247 124 -427 hlineto
          -194 -141 -99 -224 hvcurveto
          hintmask 10101110
          151 hmoveto
          157 79 47 114 vhcurveto
          23 -414 -23 hlineto
          -114 -79 52 158 hvcurveto
          endchar
        </CharString>
        <CharString name="OE.sc">
          189 0 114 101 107 92 114 214 callgsubr
          154 147 vstem
          46 261 rmoveto
          -190 123 -71 170 vhcurveto
          374 114 -215 101 175 107 -175 92 205 114 -373 hlineto
          -161 -123 -75 -192 hvcurveto
          305 153 rmoveto
          -300 -20 vlineto
          -85 -49 40 107 109 49 44 85 hvcurveto
          endchar
        </CharString>
        <CharString name="Oacute">
          -52 callgsubr
          38 120 214 callgsubr
          290 151 vstem
          -107 callsubr
          162 707 -75 callsubr
          118 hlineto
          endchar
        </CharString>
        <CharString name="Oacute.sc">
          39 -15 callgsubr
          hstem
          11 callgsubr
          vstem
          -104 callsubr
          162 603 -75 callsubr
          117 hlineto
          endchar
        </CharString>
        <CharString name="Ocircumflex">
          -52 callgsubr
          38 120 214 callgsubr
          290 151 vstem
          -107 callsubr
          -55 587 rmoveto
          53 61 rlineto
          -61 callgsubr
          endchar
        </CharString>
        <CharString name="Ocircumflex.sc">
          39 -15 callgsubr
          hstem
          11 callgsubr
          vstem
          -104 callsubr
          -56 483 rmoveto
          54 60 88 callsubr
          -60 183 callgsubr
        </CharString>
        <CharString name="Odieresis">
          -52 callgsubr
          36 140 137 callgsubr
          -24 87 callsubr
          -24 151 hintmask 11110010
          -107 callsubr
          hintmask 11101100
          -99 585 -91 callsubr
        </CharString>
        <CharString name="Odieresis.sc">
          -4 callsubr
          50 140 137 callgsubr
          -57 87 callsubr
          -59 151 hintmask 11110010
          -104 callsubr
          hintmask 11101100
          -99 481 -91 callsubr
        </CharString>
        <CharString name="Ograve">
          -52 callgsubr
          38 120 214 callgsubr
          290 151 vstem
          -107 callsubr
          -42 587 103 callsubr
          -15 callsubr
          endchar
        </CharString>
        <CharString name="Ograve.sc">
          39 -15 callgsubr
          hstem
          11 callgsubr
          vstem
          -104 callsubr
          -43 483 rmoveto
          118 hlineto
          -15 callsubr
          endchar
        </CharString>
        <CharString name="Ohorn">
          -52 callgsubr
          hstemhm
          255 callgsubr
          -97 114 hintmask 11110000
          343 115 rmoveto
          -89 -56 83 131 130 56 78 89 89 56 -78 -130 -131 -56 -83 -89 hvcurveto
          hintmask 11101000
          -82 callgsubr
          hintmask 11110000
          176 120 128 213 111 -33 86 -56 58 hvcurveto
          hintmask 11101000
          64 18 42 37 65 10 callsubr
        </CharString>
        <CharString name="Ohorn.sc">
          -4 callsubr
          hstemhm
          11 callgsubr
          -72 114 hintmask 11110000
          309 109 rmoveto
          -70 -42 60 98 97 42 55 70 68 42 -55 -97 -98 -42 -60 -68 hvcurveto
          hintmask 11101000
          -78 callsubr
          hintmask 11110000
          154 107 103 176 76 -21 62 -36 46 hvcurveto
          hintmask 11101000
          58 17 41 38 -53 callgsubr
        </CharString>
        <CharString name="Ohungarumlaut">
          -52 callgsubr
          38 120 214 callgsubr
          290 151 vstem
          -107 callsubr
          -38 587 rmoveto
          89 269 callsubr
          180 hmoveto
          98 hlineto
          90 234 callgsubr
        </CharString>
        <CharString name="Ohungarumlaut.sc">
          39 -15 callgsubr
          hstem
          11 callgsubr
          vstem
          -104 callsubr
          -39 483 rmoveto
          90 155 callsubr
          -126 hlineto
          endchar
        </CharString>
        <CharString name="Omacron">
          -52 callgsubr
          56 93 137 callgsubr
          4 282 4 259 callgsubr
          -107 callsubr
          hintmask 11101000
          -141 605 87 callgsubr
        </CharString>
        <CharString name="Omacron.sc">
          -4 callsubr
          69 94 137 callgsubr
          -30 283 -31 259 callgsubr
          -104 callsubr
          hintmask 11101000
          -142 500 66 callsubr
        </CharString>
        <CharString name="Oslash">
          -52 callgsubr
          hstem
          255 callgsubr
          vstem
          479 410 rmoveto
          6 -24 3 -27 -30 vvcurveto
          -131 -56 -83 -89 -30 -27 10 18 -22 vhcurveto
          -53 87 rmoveto
          -8 28 -5 34 37 vvcurveto
          130 56 78 89 35 30 -12 -22 23 vhcurveto
          229 131 rmoveto
          -76 59 -66 -82 rlineto
          35 -48 -59 18 -68 hhcurveto
          -176 -120 -122 -213 -92 23 -77 39 -57 hvcurveto
          -69 -86 76 -58 62 77 rlineto
          -31 46 56 -17 63 hhcurveto
          176 120 128 213 86 -20 71 -35 54 hvcurveto
          endchar
        </CharString>
        <CharString name="Oslash.sc">
          39 -12 112 328 112 hstem
          46 143 238 143 vstem
          418 338 rmoveto
          6 -20 3 -24 -27 vvcurveto
          -103 -45 -64 -73 -29 -25 10 18 -19 vhcurveto
          -37 63 rmoveto
          -7 22 -3 26 28 vvcurveto
          102 45 59 75 29 24 -9 -18 19 vhcurveto
          187 110 rmoveto
          -55 42 -49 -57 rlineto
          29 -42 -53 15 -60 hhcurveto
          -156 -107 -98 -175 -77 21 -63 36 -47 hvcurveto
          -55 -63 55 -42 50 58 rlineto
          -30 42 54 -15 60 hhcurveto
          154 107 103 176 76 -20 61 -36 45 hvcurveto
          endchar
        </CharString>
        <CharString name="Otilde">
          -52 callgsubr
          39 136 137 callgsubr
          -25 75 240 259 callgsubr
          -107 callsubr
          63 588 rmoveto
          121 callsubr
          -74 hlineto
          106 callsubr
          hhcurveto
          hintmask 11110100
          164 callsubr
          endchar
        </CharString>
        <CharString name="Otilde.sc">
          -4 callsubr
          53 135 hstem
          11 callgsubr
          vstem
          -104 callsubr
          63 484 rmoveto
          52 45 53 callgsubr
          -32 -7 -15 -12 -17 -30 -36 44 -53 163 callgsubr
          74 hlineto
          32 8 14 13 17 30 36 -45 54 hhcurveto
          endchar
        </CharString>
        <CharString name="P">
          29 21 -21 221 117 197 117 -47 callsubr
          202 144 vstem
          77 hmoveto
          147 221 91 hlineto
          138 117 68 153 158 -114 52 -141 hvcurveto
          -238 hlineto
          147 -314 rmoveto
          197 82 vlineto
          78 42 -25 -68 -68 -39 -36 -81 hvcurveto
          endchar
        </CharString>
        <CharString name="P.sc">
          -26 21 -21 167 101 145 115 -47 callsubr
          151 140 vstem
          77 hmoveto
          147 167 67 hlineto
          118 106 54 131 134 -103 42 -121 hvcurveto
          -214 hlineto
          147 -260 rmoveto
          145 62 vlineto
          60 29 -21 -49 -46 -30 -29 -59 hvcurveto
          endchar
        </CharString>
        <CharString name="P.sups">
          -169 406 81 125 82 hstem
          50 104 130 102 vstem
          50 262 rmoveto
          104 144 60 hlineto
          91 81 46 103 104 -78 35 -94 hvcurveto
          -164 hlineto
          104 -207 rmoveto
          125 52 vlineto
          51 27 -16 -41 -43 -25 -25 -53 hvcurveto
          endchar
        </CharString>
        <CharString name="Q">
          107 -178 117 82 -21 537 127 214 callgsubr
          290 151 vstem
          197 329 rmoveto
          130 56 78 89 89 56 -78 -130 -139 -56 -82 -89 -89 -56 82 139 vhcurveto
          449 -378 rmoveto
          -7 -19 -25 -5 -28 hhcurveto
          -55 -58 16 45 -30 hvcurveto
          126 36 81 118 175 181 callgsubr
          -184 90 -121 139 -29 vhcurveto
          -102 46 98 -71 138 hhcurveto
          50 41 9 12 24 hvcurveto
          endchar
        </CharString>
        <CharString name="Q.sc">
          37 -170 114 75 -21 421 121 hstem
          44 151 222 151 vstem
          307 419 rmoveto
          68 42 -55 -97 -106 -42 -61 -68 -70 -42 61 106 97 42 55 70 hvcurveto
          260 -465 rmoveto
          -6 -18 -21 -4 -24 hhcurveto
          -51 -44 9 45 -24 hvcurveto
          111 29 72 96 144 vvcurveto
          231 callgsubr
          -147 75 -96 116 -28 vhcurveto
          -99 42 77 -67 133 hhcurveto
          46 37 8 12 22 hvcurveto
          endchar
        </CharString>
        <CharString name="Q.sups">
          -116 143 83 386 90 hstem
          27 107 189 106 vstem
          134 479 rmoveto
          85 35 48 59 58 37 -48 -85 -86 -37 -54 -58 -59 -35 54 86 vhcurveto
          302 -246 rmoveto
          -4 -14 -16 -3 -20 hhcurveto
          -36 -39 8 29 -20 hvcurveto
          84 25 54 77 114 vvcurveto
          141 -82 82 -119 -120 -81 -81 -142 -121 61 -80 94 -19 vhcurveto
          -69 30 67 -47 95 hhcurveto
          36 28 7 9 16 hvcurveto
          endchar
        </CharString>
        <CharString name="R">
          39 21 100 callgsubr
          -47 callsubr
          195 144 vstem
          224 535 60 callsubr
          371 -352 rmoveto
          -148 261 rlineto
          -61 callsubr
          endchar
        </CharString>
        <CharString name="R.sc">
          269 callgsubr
          -47 callsubr
          147 139 vstem
          224 413 -39 callgsubr
        </CharString>
        <CharString name="R.sups">
          -161 415 81 116 82 hstem
          50 104 126 101 vstem
          154 612 rmoveto
          49 hlineto
          50 27 -16 -40 -39 -27 -21 -50 hvcurveto
          -49 hlineto
          249 -234 rmoveto
          -98 172 rlineto
          46 22 30 41 62 vvcurveto
          103 -77 32 -93 vhcurveto
          -161 -432 104 153 52 hlineto
          81 -153 rlineto
          endchar
        </CharString>
        <CharString name="Racute">
          39 21 100 callgsubr
          50 120 -47 callsubr
          195 144 vstem
          472 822 -75 callsubr
          117 hlineto
          -128 -167 60 callsubr
          371 -352 rmoveto
          -148 261 rlineto
          -61 callsubr
          endchar
        </CharString>
        <CharString name="Racute.sc">
          138 callgsubr
          461 712 -75 callsubr
          118 hlineto
          -118 -179 -39 callgsubr
        </CharString>
        <CharString name="Rcaron">
          39 21 100 callgsubr
          50 120 -47 callsubr
          195 144 vstem
          382 108 callgsubr
          -14 -167 60 callsubr
          371 -352 rmoveto
          -148 261 rlineto
          -61 callsubr
          endchar
        </CharString>
        <CharString name="Rcaron.sc">
          138 callgsubr
          371 108 callsubr
          -4 -179 -39 callgsubr
        </CharString>
        <CharString name="S">
          -21 -38 callsubr
          hstem
          61 149 161 151 vstem
          -101 callsubr
          endchar
        </CharString>
        <CharString name="S.sc">
          -73 -12 121 callgsubr
          hstem
          64 147 111 148 vstem
          -102 callgsubr
          endchar
        </CharString>
        <CharString name="S.sups">
          -203 254 89 273 87 hstem
          40 105 102 105 vstem
          22 317 rmoveto
          -43 46 61 -20 58 hhcurveto
          105 60 63 78 56 -25 29 -60 25 hvcurveto
          -57 24 rlineto
          -36 16 -29 9 26 vvcurveto
          21 16 15 34 36 28 -14 -21 29 vhcurveto
          53 64 rlineto
          37 -39 -54 21 -49 hhcurveto
          -94 -65 -59 -72 -61 37 -33 52 -22 hvcurveto
          56 -24 rlineto
          37 -16 25 -9 -24 vvcurveto
          -22 -14 -18 -40 -37 -43 17 27 -31 vhcurveto
          endchar
        </CharString>
        <CharString name="Sacute">
          -21 -38 callsubr
          38 120 hstem
          61 149 161 151 vstem
          -101 callsubr
          334 639 -75 callsubr
          118 hlineto
          endchar
        </CharString>
        <CharString name="Sacute.sc">
          -73 -12 121 callgsubr
          51 120 hstem
          64 147 111 148 vstem
          -102 callgsubr
          328 551 -75 callsubr
          118 hlineto
          endchar
        </CharString>
        <CharString name="Scaron">
          -21 -38 callsubr
          38 120 hstem
          61 149 161 151 vstem
          -101 callsubr
          228 639 rmoveto
          -54 -61 rlineto
          -4 hlineto
          -53 61 -85 callsubr
        </CharString>
        <CharString name="Scaron.sc">
          -73 -12 121 callgsubr
          51 120 hstem
          64 147 111 148 vstem
          -102 callgsubr
          222 551 rmoveto
          -54 -61 rlineto
          -4 hlineto
          -53 61 -85 callsubr
        </CharString>
        <CharString name="Scircumflex">
          -21 -38 callsubr
          38 120 hstem
          61 149 161 151 vstem
          -101 callsubr
          117 519 -26 callsubr
        </CharString>
        <CharString name="Scircumflex.sc">
          -73 -12 121 callgsubr
          51 120 hstem
          64 147 111 148 vstem
          -102 callgsubr
          111 431 rmoveto
          53 60 rlineto
          155 callgsubr
          endchar
        </CharString>
        <CharString name="T">
          -21 21 259 callsubr
          hstem
          204 148 vstem
          5 callsubr
          endchar
        </CharString>
        <CharString name="T.sc">
          -86 21 -21 408 120 hstem
          172 147 vstem
          5 callgsubr
          endchar
        </CharString>
        <CharString name="T.sups">
          -201 608 86 hstem
          137 104 vstem
          137 262 rmoveto
          104 346 119 86 -344 -86 121 hlineto
          endchar
        </CharString>
        <CharString name="Tcaron">
          -21 21 259 callsubr
          50 120 hstem
          204 148 vstem
          5 callsubr
          129 294 -83 callgsubr
        </CharString>
        <CharString name="Tcaron.sc">
          -86 21 -21 408 120 64 120 hstem
          172 147 vstem
          5 callgsubr
          129 304 rmoveto
          -54 -61 rlineto
          -4 hlineto
          -53 61 -85 callsubr
        </CharString>
        <CharString name="Thorn">
          40 21 -21 123 117 196 117 99 -20 -47 callsubr
          202 144 vstem
          77 hmoveto
          147 123 91 hlineto
          138 117 67 154 158 -114 51 -141 hvcurveto
          -91 99 -37 callsubr
          147 -412 rmoveto
          196 82 vlineto
          78 42 -24 -68 -68 -39 -36 -81 hvcurveto
          endchar
        </CharString>
        <CharString name="Thorn.sc">
          -15 21 -21 92 106 144 106 -106 186 hstemhm
          -49 callsubr
          148 143 hintmask 11011100
          77 hmoveto
          147 92 67 hlineto
          117 107 53 130 hvcurveto
          hintmask 11101100
          134 -104 39 -120 vhcurveto
          -67 hlineto
          hintmask 11011100
          80 -147 vlineto
          147 -330 rmoveto
          144 61 vlineto
          56 31 -16 -51 -50 -28 -27 -59 hvcurveto
          endchar
        </CharString>
        <CharString name="U">
          88 -24 callgsubr
          hstem
          28 callsubr
          vstem
          -103 callgsubr
          endchar
        </CharString>
        <CharString name="U.sc">
          30 -14 callsubr
          hstem
          29 callsubr
          vstem
          -103 callsubr
          endchar
        </CharString>
        <CharString name="U.sups">
          -129 254 88 hstem
          48 104 148 100 vstem
          48 465 rmoveto
          -147 57 -64 121 116 58 64 147 vhcurveto
          229 -100 -240 vlineto
          -83 -26 -29 -48 -49 -25 29 83 vhcurveto
          240 -104 vlineto
          endchar
        </CharString>
        <CharString name="Uacute">
          88 -24 callgsubr
          70 120 hstem
          28 callsubr
          vstem
          -103 callgsubr
          421 170 -75 callsubr
          118 hlineto
          endchar
        </CharString>
        <CharString name="Uacute.sc">
          30 -14 callsubr
          84 120 hstem
          29 callsubr
          vstem
          -103 callsubr
          392 184 63 callsubr
          endchar
        </CharString>
        <CharString name="Ubreve">
          88 -24 callgsubr
          70 120 hstem
          28 callsubr
          vstem
          -103 callgsubr
          259 50 rmoveto
          87 42 89 callsubr
        </CharString>
        <CharString name="Ubreve.sc">
          30 -14 callsubr
          84 120 hstem
          29 callsubr
          vstem
          -103 callsubr
          230 64 rmoveto
          88 41 48 72 168 callsubr
          -72 7 42 -48 87 hhcurveto
          endchar
        </CharString>
        <CharString name="Ucircumflex">
          88 -24 callgsubr
          70 120 hstem
          28 callsubr
          vstem
          -103 callgsubr
          204 50 -26 callsubr
        </CharString>
        <CharString name="Ucircumflex.sc">
          30 -14 callsubr
          84 120 hstem
          29 callsubr
          vstem
          -103 callsubr
          175 64 rmoveto
          53 60 rlineto
          155 callgsubr
          endchar
        </CharString>
        <CharString name="Udieresis">
          88 -24 callgsubr
          68 140 hstemhm
          73 148 -58 87 callsubr
          -52 142 hintmask 11110010
          -103 callgsubr
          160 48 rmoveto
          hintmask 11101010
          -60 callsubr
          hvcurveto
          hintmask 11110010
          227 callsubr
          113 callsubr
          198 hmoveto
          -60 callsubr
          hvcurveto
          hintmask 11110100
          227 callsubr
          hvcurveto
          hintmask 11110010
          -20 callsubr
          vhcurveto
          endchar
        </CharString>
        <CharString name="Udieresis.sc">
          30 -14 callsubr
          82 140 hstemhm
          73 146 -85 140 59 139 -79 141 hintmask 11110010
          -103 callsubr
          131 62 rmoveto
          hintmask 11101010
          -60 callsubr
          hvcurveto
          hintmask 11110010
          227 callsubr
          113 callsubr
          198 hmoveto
          42 201 callgsubr
          -42 hvcurveto
          hintmask 11110100
          -41 -28 -30 -40 hvcurveto
          hintmask 11110010
          -40 28 -30 41 vhcurveto
          endchar
        </CharString>
        <CharString name="Ugrave">
          88 -24 callgsubr
          70 120 hstem
          28 callsubr
          vstem
          -103 callgsubr
          217 50 103 callsubr
          -15 callsubr
          endchar
        </CharString>
        <CharString name="Ugrave.sc">
          30 -14 callsubr
          84 120 hstem
          29 callsubr
          vstem
          -103 callsubr
          188 64 103 callsubr
          -15 callsubr
          endchar
        </CharString>
        <CharString name="Uhorn">
          106 -24 callgsubr
          hstemhm
          28 callsubr
          11 114 vstemhm
          586 760 rmoveto
          8 -12 8 -16 -18 vvcurveto
          -52 -43 -9 -40 -1 vhcurveto
          hintmask 11110000
          -80 callgsubr
          hintmask 11111000
          70 13 55 38 75 vvcurveto
          33 -15 213 callgsubr
        </CharString>
        <CharString name="Uhorn.sc">
          48 -14 callsubr
          hstemhm
          29 callsubr
          10 114 vstemhm
          528 636 133 callgsubr
          -52 -43 -8 -40 -2 vhcurveto
          hintmask 11110000
          -77 callgsubr
          hintmask 11111000
          69 14 55 37 75 10 callsubr
        </CharString>
        <CharString name="Uhungarumlaut">
          88 -24 callgsubr
          70 120 hstem
          28 callsubr
          vstem
          -103 callgsubr
          221 50 105 callgsubr
        </CharString>
        <CharString name="Uhungarumlaut.sc">
          30 -14 callsubr
          84 120 hstem
          29 callsubr
          vstem
          -103 callsubr
          192 64 105 callgsubr
        </CharString>
        <CharString name="Umacron">
          88 -24 callgsubr
          88 93 hstem
          28 callsubr
          vstem
          -103 callgsubr
          118 68 161 callsubr
        </CharString>
        <CharString name="Umacron.sc">
          30 -14 callsubr
          101 94 hstem
          29 callsubr
          vstem
          -103 callsubr
          89 81 66 callsubr
        </CharString>
        <CharString name="Uogonek">
          88 -223 95 118 125 537 -20 hstemhm
          73 148 22 107 99 142 hintmask 11110100
          73 302 rmoveto
          -205 81 -98 153 -9 vhcurveto
          hintmask 11111100
          -18 -16 -46 -41 -62 vvcurveto
          -60 50 145 callgsubr
          26 vhcurveto
          -34 15 callsubr
          27 21 35 50 23 hvcurveto
          118 54 52 68 185 vvcurveto
          350 -142 -365 vlineto
          -128 -42 -44 -73 vhcurveto
          hintmask 11110100
          -73 -40 44 128 hvcurveto
          365 -148 vlineto
          endchar
        </CharString>
        <CharString name="Uogonek.sc">
          30 -223 95 118 119 -98 -21 538 -20 hstemhm
          73 146 -5 108 71 141 hintmask 10111010
          534 528 rmoveto
          -141 -292 hlineto
          hintmask 11011010
          -94 -27 -33 -59 -59 -29 33 94 vhcurveto
          292 -146 -283 vlineto
          -172 73 -74 132 -9 vhcurveto
          hintmask 10110110
          -17 -16 -47 -41 -62 40 callsubr
          -33 15 callsubr
          27 21 35 50 23 hvcurveto
          97 43 44 58 149 vvcurveto
          endchar
        </CharString>
        <CharString name="Uring">
          88 -24 callgsubr
          65 55 86 55 hstemhm
          73 148 -1 71 82 72 4 142 hintmask 11111001
          -103 callgsubr
          hintmask 11110110
          259 45 rmoveto
          76 callsubr
          55 vmoveto
          -22 -19 16 27 26 19 17 22 23 235 callgsubr
          -23 hvcurveto
          endchar
        </CharString>
        <CharString name="Uring.sc">
          30 -14 callsubr
          79 55 86 55 hstemhm
          73 146 -28 72 81 72 -23 141 hintmask 11111001
          -103 callsubr
          hintmask 11110110
          230 59 rmoveto
          76 callsubr
          55 vmoveto
          -22 241 callgsubr
          22 23 235 callgsubr
          -23 hvcurveto
          endchar
        </CharString>
        <CharString name="Utilde">
          88 -24 callgsubr
          71 136 hstem
          28 callsubr
          vstem
          -103 callgsubr
          322 51 rmoveto
          121 callsubr
          -74 246 callgsubr
          -52 -45 -45 -91 -10 hvcurveto
          211 callsubr
        </CharString>
        <CharString name="Utilde.sc">
          30 -14 callsubr
          85 135 hstem
          29 callsubr
          vstem
          -103 callsubr
          293 65 rmoveto
          53 44 45 90 11 hvcurveto
          -75 hlineto
          -32 -7 -15 277 callgsubr
          44 -54 hhcurveto
          -52 49 callgsubr
          53 hhcurveto
          endchar
        </CharString>
        <CharString name="V">
          -21 0 139 -118 191 callsubr
          hstemhm
          -7 570 hintmask 01110000
          190 hmoveto
          177 hlineto
          196 652 rlineto
          -150 hlineto
          -77 -304 rlineto
          hintmask 10110000
          -19 -71 -14 -66 -19 -72 rrcurveto
          -4 hlineto
          -20 72 -13 66 -20 71 -78 304 rcurveline
          -156 hlineto
          endchar
        </CharString>
        <CharString name="V.sc">
          -86 0 130 -109 187 callsubr
          hstemhm
          -7 505 hintmask 01110000
          157 hmoveto
          176 hlineto
          165 528 rlineto
          -37 callsubr
          -58 -230 rlineto
          hintmask 10110000
          -14 -56 -12 -54 -16 -58 rrcurveto
          -4 hlineto
          -15 59 -12 53 -15 56 -60 230 rcurveline
          -152 hlineto
          endchar
        </CharString>
        <CharString name="V.sups">
          -199 262 97 hstem
          -6 389 vstem
          127 262 rmoveto
          125 hlineto
          131 432 rlineto
          -105 hlineto
          -51 -197 -12 -46 -9 -44 -13 -48 rlinecurve
          -2 hlineto
          -13 48 -10 44 -12 46 -51 197 rcurveline
          -111 hlineto
          endchar
        </CharString>
        <CharString name="W">
          130 callsubr
          hstem
          14 786 -98 callsubr
          endchar
        </CharString>
        <CharString name="W.sc">
          98 callgsubr
          hstem
          14 689 -97 callsubr
          endchar
        </CharString>
        <CharString name="W.sups">
          -28 262 98 190 144 hstem
          8 533 vstem
          89 262 rmoveto
          129 hlineto
          38 190 7 32 5 35 5 31 rlinecurve
          3 hlineto
          4 -31 6 -35 7 -32 41 -190 rcurveline
          131 hlineto
          76 432 rlineto
          -99 hlineto
          -29 -197 -6 -44 -5 -46 -5 -47 rlinecurve
          -3 hlineto
          -8 47 -9 47 -9 43 -46 197 rcurveline
          -88 hlineto
          -45 -197 -10 -45 -6 -45 -9 -47 rlinecurve
          -3 hlineto
          -7 47 -5 44 -6 46 -28 197 rcurveline
          -107 hlineto
          endchar
        </CharString>
        <CharString name="Wacute">
          130 callsubr
          70 120 hstem
          14 786 -98 callsubr
          555 170 -75 callsubr
          117 hlineto
          endchar
        </CharString>
        <CharString name="Wacute.sc">
          98 callgsubr
          65 120 hstem
          14 689 -97 callsubr
          507 185 -75 callsubr
          118 hlineto
          endchar
        </CharString>
        <CharString name="Wcircumflex">
          130 callsubr
          70 120 hstem
          14 786 -98 callsubr
          337 106 callgsubr
        </CharString>
        <CharString name="Wcircumflex.sc">
          98 callgsubr
          65 120 hstem
          14 689 -97 callsubr
          290 65 rmoveto
          53 60 rlineto
          155 callgsubr
          endchar
        </CharString>
        <CharString name="Wdieresis">
          130 callsubr
          68 140 hstem
          238 140 58 140 -98 callsubr
          294 48 -91 callsubr
        </CharString>
        <CharString name="Wdieresis.sc">
          98 callgsubr
          63 140 hstem
          190 140 58 140 -97 callsubr
          246 63 -91 callsubr
        </CharString>
        <CharString name="Wgrave">
          130 callsubr
          70 120 hstem
          14 786 -98 callsubr
          350 50 rmoveto
          118 hlineto
          -15 callsubr
          endchar
        </CharString>
        <CharString name="Wgrave.sc">
          98 callgsubr
          65 120 hstem
          14 689 -97 callsubr
          303 65 103 callsubr
          -15 callsubr
          endchar
        </CharString>
        <CharString name="X">
          -10 54 callgsubr
          hstem
          11 545 vstem
          11 hmoveto
          158 hlineto
          61 133 14 34 15 33 15 40 rlinecurve
          4 hlineto
          18 -40 15 -33 16 -34 65 -133 rcurveline
          164 hlineto
          -180 328 169 324 rlineto
          -157 hlineto
          -52 -123 -13 -30 -14 -34 -15 -41 rlinecurve
          -4 hlineto
          -18 41 -14 34 -15 30 -57 123 rcurveline
          -164 hlineto
          170 -317 rlineto
          endchar
        </CharString>
        <CharString name="X.sc">
          -68 54 callsubr
          hstem
          11 486 vstem
          11 hmoveto
          156 hlineto
          43 91 11 28 12 28 12 33 rlinecurve
          4 hlineto
          14 -33 13 -28 14 -28 45 -91 rcurveline
          162 hlineto
          -152 265 143 263 rlineto
          -156 hlineto
          -33 -83 -9 -24 -13 -29 -13 -35 rlinecurve
          -4 hlineto
          -15 35 -13 29 -11 24 -39 83 rcurveline
          -162 hlineto
          143 -257 rlineto
          endchar
        </CharString>
        <CharString name="X.sups">
          -191 262 432 hstem
          7 371 vstem
          7 262 rmoveto
          111 hlineto
          38 85 10 23 11 22 11 26 rlinecurve
          2 hlineto
          12 -26 10 -22 11 -23 39 -85 rcurveline
          116 hlineto
          -119 218 113 214 rlineto
          -112 hlineto
          -32 -77 -7 -20 -9 -23 -11 -28 rlinecurve
          -3 hlineto
          -12 28 -12 23 -8 20 -35 77 rcurveline
          -116 hlineto
          114 -210 rlineto
          endchar
        </CharString>
        <CharString name="Y">
          204 callgsubr
          hstem
          189 147 vstem
          -97 callgsubr
          endchar
        </CharString>
        <CharString name="Y.sc">
          162 callsubr
          hstem
          160 147 vstem
          -95 callsubr
          endchar
        </CharString>
        <CharString name="Y.sups">
          -221 262 432 hstem
          127 104 vstem
          127 262 rmoveto
          104 153 hlineto
          131 279 rlineto
          -108 hlineto
          -37 -95 -12 -33 -12 -31 -12 -33 rlinecurve
          -2 hlineto
          -13 33 -11 31 -13 33 -37 95 rcurveline
          -111 hlineto
          133 -279 rlineto
          endchar
        </CharString>
        <CharString name="Yacute">
          204 callgsubr
          70 120 hstem
          189 147 vstem
          -97 callgsubr
          236 590 rmoveto
          -157 hlineto
          -80 102 callgsubr
          endchar
        </CharString>
        <CharString name="Yacute.sc">
          162 callsubr
          84 120 hstem
          160 147 vstem
          -95 callsubr
          233 531 -75 callsubr
          118 hlineto
          endchar
        </CharString>
        <CharString name="Ycircumflex">
          204 callgsubr
          70 120 hstem
          189 147 vstem
          -97 callgsubr
          18 470 -26 callsubr
        </CharString>
        <CharString name="Ycircumflex.sc">
          162 callsubr
          84 120 hstem
          160 147 vstem
          -95 callsubr
          16 411 110 callgsubr
        </CharString>
        <CharString name="Ydieresis">
          204 callgsubr
          68 140 hstemhm
          94 139 -44 147 -44 139 hintmask 11101000
          -97 callgsubr
          hintmask 11110100
          -26 468 rmoveto
          -67 callgsubr
          201 callsubr
          41 hvcurveto
          199 hmoveto
          41 28 30 40 40 -28 30 -41 -42 201 callsubr
          42 hvcurveto
          endchar
        </CharString>
        <CharString name="Ydieresis.sc">
          162 callsubr
          82 140 hstemhm
          62 140 -42 147 -47 140 hintmask 11101000
          -95 callsubr
          hintmask 11110100
          -28 409 -91 callsubr
        </CharString>
        <CharString name="Ygrave">
          204 callgsubr
          70 120 hstem
          189 147 vstem
          -97 callgsubr
          31 470 103 callsubr
          -80 -45 callgsubr
          -157 hlineto
          endchar
        </CharString>
        <CharString name="Ygrave.sc">
          162 callsubr
          84 120 hstem
          160 147 vstem
          -95 callsubr
          29 411 103 callsubr
          -15 callsubr
          endchar
        </CharString>
        <CharString name="Z">
          -36 18 callgsubr
          hstem
          36 472 -42 callsubr
          endchar
        </CharString>
        <CharString name="Z.sc">
          221 callsubr
          hstem
          36 411 -41 callsubr
          endchar
        </CharString>
        <CharString name="Z.sups">
          -213 262 86 260 86 hstem
          23 319 vstem
          23 262 rmoveto
          319 86 -191 hlineto
          190 283 rlineto
          63 -300 -86 171 vlineto
          -189 -284 rlineto
          endchar
        </CharString>
        <CharString name="Zacute">
          -36 18 callgsubr
          50 120 hstem
          36 472 -42 callsubr
          409 733 -75 callsubr
          118 hlineto
          endchar
        </CharString>
        <CharString name="Zacute.sc">
          221 callsubr
          64 120 hstem
          36 411 -41 callsubr
          382 625 -75 callsubr
          117 hlineto
          endchar
        </CharString>
        <CharString name="Zcaron">
          -36 18 callgsubr
          50 120 hstem
          36 472 -42 callsubr
          302 733 -83 callgsubr
        </CharString>
        <CharString name="Zcaron.sc">
          221 callsubr
          64 120 hstem
          36 411 -41 callsubr
          275 625 -83 callgsubr
        </CharString>
        <CharString name="Zdotaccent">
          -36 18 callgsubr
          49 154 hstem
          198 170 -42 callsubr
          247 612 143 callsubr
          -44 callsubr
        </CharString>
        <CharString name="Zdotaccent.sc">
          221 callsubr
          63 154 hstem
          171 170 -41 callsubr
          220 504 143 callsubr
          -44 callsubr
        </CharString>
        <CharString name="a">
          -66 callsubr
          42 callgsubr
          hintmask 01111000
          124 callsubr
          hintmask 10111000
          -84 callgsubr
          hintmask 01111000
          -104 callgsubr
          hintmask 10111000
          -100 callgsubr
          endchar
        </CharString>
        <CharString name="a.a">
          -82 callsubr
          13 callsubr
          hintmask 10101100
          -106 callgsubr
          hintmask 01011100
          -79 callgsubr
          hintmask 01101100
          -84 callsubr
          hintmask 10101100
          -31 callgsubr
          endchar
        </CharString>
        <CharString name="a.supa">
          -23 callsubr
        </CharString>
        <CharString name="a.sups">
          -32 callsubr
        </CharString>
        <CharString name="aacute">
          -4 callgsubr
          150 42 callgsubr
          hintmask 01111100
          124 callsubr
          hintmask 10111100
          -84 callgsubr
          hintmask 01111100
          -104 callgsubr
          hintmask 10111100
          -100 callgsubr
          243 575 -48 callsubr
          endchar
        </CharString>
        <CharString name="aacute.a">
          -94 callgsubr
          410 476 -48 callsubr
          endchar
        </CharString>
        <CharString name="abreve">
          -4 callgsubr
          187 callgsubr
          47 140 -45 82 102 147 -135 82 hintmask 0110110100000000
          124 callsubr
          hintmask 1010110100000000
          -84 callgsubr
          hintmask 0110110100000000
          -104 callgsubr
          hintmask 1010110100000000
          -100 callgsubr
          hintmask 0110101010000000
          94 425 68 callsubr
          hintmask 0111010010000000
          239 callsubr
          hintmask 0110101100000000
          172 callsubr
          hintmask 0110101010000000
          203 callsubr
          endchar
        </CharString>
        <CharString name="abreve.a">
          -82 callsubr
          98 187 callgsubr
          39 151 -30 82 115 82 -78 147 hintmask 1010011001000000
          -106 callgsubr
          hintmask 0101011001000000
          -79 callgsubr
          hintmask 0110011001000000
          -84 callsubr
          hintmask 1010011001000000
          -31 callgsubr
          hintmask 0101010110000000
          161 callgsubr
          -82 hlineto
          hintmask 0101101010000000
          -32 -5 -17 -26 -36 hhcurveto
          hintmask 0101010101000000
          -35 134 callsubr
          hintmask 0101010110000000
          61 callsubr
        </CharString>
        <CharString name="acircumflex">
          -4 callgsubr
          150 42 callgsubr
          hintmask 01111100
          124 callsubr
          hintmask 10111100
          -84 callgsubr
          hintmask 01111100
          -104 callgsubr
          hintmask 10111100
          -100 callgsubr
          -61 425 148 callgsubr
          endchar
        </CharString>
        <CharString name="acircumflex.a">
          -94 callgsubr
          106 43 callsubr
          endchar
        </CharString>
        <CharString name="acute">
          -22 146 callsubr
          196 231 vstem
          427 228 callsubr
          endchar
        </CharString>
        <CharString name="adieresis">
          -66 callsubr
          63 139 165 callsubr
          -75 139 59 140 -124 147 hintmask 01111001
          124 callsubr
          hintmask 10111001
          -84 callgsubr
          hintmask 01111001
          -104 callgsubr
          hintmask 10111001
          -100 callgsubr
          hintmask 01110110
          -5 422 rmoveto
          41 28 30 40 39 238 callgsubr
          -39 -40 28 -30 42 hvcurveto
          198 hmoveto
          -54 callgsubr
          endchar
        </CharString>
        <CharString name="adieresis.a">
          -82 callsubr
          95 139 139 callsubr
          -59 139 59 139 -107 147 hintmask 1010110010000000
          -106 callgsubr
          hintmask 0101110010000000
          -79 callgsubr
          hintmask 0110110010000000
          -84 callsubr
          hintmask 1010110010000000
          -31 callgsubr
          hintmask 0101101100000000
          161 323 rmoveto
          69 callsubr
          -28 -30 -39 -40 28 -30 41 hvcurveto
          199 hmoveto
          41 28 30 40 39 238 callgsubr
          -39 -40 28 -30 42 hvcurveto
          endchar
        </CharString>
        <CharString name="ae">
          209 -12 115 102 90 96 117 -112 112 165 callsubr
          136 134 167 125 hintmask 11011110
          187 149 rmoveto
          39 38 29 97 14 vhcurveto
          1 -21 2 -22 5 -24 7 -20 rlinecurve
          -26 -27 -32 -16 -34 hhcurveto
          -35 -22 15 32 hvcurveto
          hintmask 11101110
          -71 197 rmoveto
          28 48 42 17 40 hhcurveto
          55 19 -28 -43 3 hvcurveto
          -195 -20 -81 -58 -105 vvcurveto
          -83 57 -66 90 66 55 21 56 70 vhcurveto
          -46 42 55 -31 74 hhcurveto
          58 66 21 35 51 hvcurveto
          -50 210 callgsubr
          286 hlineto
          3 12 3 23 27 vvcurveto
          hintmask 11011110
          135 -66 106 -131 -59 -46 -27 -48 -42 vhcurveto
          47 -29 -48 28 -61 hhcurveto
          -72 -68 -27 -38 -63 hvcurveto
          393 -148 212 callgsubr
        </CharString>
        <CharString name="agrave">
          -4 callgsubr
          150 42 callgsubr
          hintmask 01111100
          124 callsubr
          hintmask 10111100
          -84 callgsubr
          hintmask 01111100
          -104 callgsubr
          hintmask 10111100
          -100 callgsubr
          68 425 rmoveto
          107 hlineto
          -88 150 rlineto
          -143 hlineto
          endchar
        </CharString>
        <CharString name="agrave.a">
          -94 callgsubr
          235 326 rmoveto
          107 13 callgsubr
        </CharString>
        <CharString name="amacron">
          -66 callsubr
          84 93 165 callsubr
          -44 276 -93 147 hintmask 01111010
          124 callsubr
          hintmask 10111010
          -84 callgsubr
          hintmask 01111010
          -104 callgsubr
          hintmask 10111010
          -100 callgsubr
          hintmask 01110100
          -44 443 -6 callgsubr
        </CharString>
        <CharString name="amacron.a">
          -82 callsubr
          116 93 139 callsubr
          -29 277 -77 147 hintmask 10101101
          -106 callgsubr
          hintmask 01011101
          -79 callgsubr
          hintmask 01101101
          -84 callsubr
          hintmask 10101101
          -31 callgsubr
          hintmask 01011010
          122 344 rmoveto
          277 93 -277 hlineto
          endchar
        </CharString>
        <CharString name="ampersand">
          90 -12 112 467 97 hstemhm
          25 139 -60 121 104 112 hintmask 11101000
          164 183 rmoveto
          30 18 25 26 23 vhcurveto
          38 -48 47 -46 51 -41 rrcurveto
          -17 -28 -28 -9 -27 hhcurveto
          -58 -39 34 49 hvcurveto
          hintmask 11011000
          61 311 rmoveto
          45 26 28 33 31 14 -20 -31 -44 -36 -28 -47 -28 vhcurveto
          -13 27 -8 27 24 vvcurveto
          424 -387 rmoveto
          -33 5 -39 15 -41 21 50 68 35 73 24 79 rrcurveto
          -134 hlineto
          -16 -61 -26 -52 -33 -43 -48 35 -46 41 -37 43 rrcurveto
          68 46 68 54 85 vvcurveto
          90 -62 58 -98 -109 -68 -78 -93 -41 15 -47 25 -47 vhcurveto
          hintmask 11101000
          -64 -41 -55 -52 -91 vvcurveto
          -100 75 -86 142 82 68 25 41 55 vhcurveto
          56 -32 57 -23 54 -11 rrcurveto
          endchar
        </CharString>
        <CharString name="ampersand.sc">
          19 -12 105 355 92 hstemhm
          25 131 -66 113 88 105 hintmask 11101000
          156 151 rmoveto
          21 12 18 18 17 vhcurveto
          31 -34 37 -34 40 -30 rrcurveto
          -10 -21 -21 -6 -21 hhcurveto
          -44 -31 22 36 hvcurveto
          hintmask 11011000
          47 243 rmoveto
          33 24 21 25 25 14 -15 -24 -34 -29 -21 -39 -21 vhcurveto
          -13 22 -7 20 19 vvcurveto
          374 -292 rmoveto
          -28 5 -32 10 -34 15 42 54 31 58 20 60 rrcurveto
          -132 hlineto
          -13 -45 -21 -40 -26 -33 -38 24 -37 29 -31 29 rrcurveto
          60 36 58 40 67 vvcurveto
          78 -58 51 -88 -98 -62 -68 -77 -33 13 -38 24 -38 vhcurveto
          hintmask 11101000
          -55 -31 -47 -40 -72 vvcurveto
          -79 63 -76 128 74 59 21 35 47 vhcurveto
          50 -27 50 -21 48 -8 rrcurveto
          endchar
        </CharString>
        <CharString name="aogonek">
          -43 -210 87 111 114 -83 -21 23 -21 391 117 165 callsubr
          99 99 -59 147 hintmask 11001101
          187 149 rmoveto
          38 34 30 105 14 vhcurveto
          -87 vlineto
          -26 -26 -22 -16 -34 hhcurveto
          -35 -22 15 32 hvcurveto
          -140 -12 rmoveto
          -83 57 -66 90 vhcurveto
          hintmask 11001010
          56 47 26 37 42 hvcurveto
          3 hlineto
          hintmask 10101010
          13 -53 rlineto
          -26 -17 -43 -41 -59 vvcurveto
          125 callgsubr
          hvcurveto
          hintmask 10011001
          30 23 37 65 18 vhcurveto
          284 vlineto
          152 -70 72 -127 -78 -71 -27 -38 -63 vhcurveto
          52 -97 rlineto
          28 48 42 17 42 hhcurveto
          53 22 -28 -44 3 hvcurveto
          hintmask 11001101
          -196 -20 -83 -57 -105 vvcurveto
          endchar
        </CharString>
        <CharString name="aogonek.a">
          -4 -210 87 111 120 -89 -21 23 31 callsubr
          -12 -20 139 callsubr
          131 100 -60 147 hintmask 1100101010000000
          190 250 rmoveto
          94 42 44 47 27 29 -8 -24 26 vhcurveto
          -203 vlineto
          -33 -24 -25 -12 -32 hhcurveto
          -57 -33 44 98 hvcurveto
          -151 -2 rmoveto
          -162 80 -98 123 vhcurveto
          hintmask 1100011100000000
          -17 callgsubr
          hvcurveto
          4 hlineto
          hintmask 1010011100000000
          12 -51 rlineto
          -26 -18 -43 -40 -59 vvcurveto
          -60 48 -31 58 32 267 callgsubr
          -14 -6 -13 hhcurveto
          -21 -20 12 26 hvcurveto
          hintmask 1001011010000000
          30 22 35 65 20 vhcurveto
          496 -115 vlineto
          hintmask 1001101010000000
          -84 callsubr
          hintmask 1100101010000000
          -31 callgsubr
          endchar
        </CharString>
        <CharString name="approxequal">
          -49 124 104 -29 104 54 104 -29 104 hstemhm
          29 470 hintmask 10011000
          105 375 188 callgsubr
          27 76 250 callsubr
          hintmask 01011000
          -55 -34 75 -83 hhcurveto
          -50 -51 -28 -75 -49 hvcurveto
          76 -291 188 callgsubr
          28 75 250 callsubr
          hintmask 01101000
          -55 -34 75 -83 hhcurveto
          -50 -51 -27 -76 -49 hvcurveto
          endchar
        </CharString>
        <CharString name="aring">
          -66 callsubr
          40 55 94 55 165 callsubr
          -19 72 81 72 -67 147 hintmask 1011110010000000
          124 callsubr
          -84 callgsubr
          hintmask 0111101010000000
          11 -51 rlineto
          120 284 hlineto
          152 -70 72 -127 -78 -71 -27 -38 -63 vhcurveto
          52 -97 rlineto
          28 48 42 17 42 hhcurveto
          53 22 -28 -44 3 hvcurveto
          hintmask 1011110010000000
          -196 -20 -83 -57 -104 vvcurveto
          -100 callgsubr
          hintmask 0111101100000000
          94 399 rmoveto
          67 45 40 62 62 -45 48 callsubr
          22 18 -19 -28 -28 -18 -19 -22 hvcurveto
          endchar
        </CharString>
        <CharString name="aring.a">
          -82 callsubr
          72 55 94 55 139 callsubr
          -3 72 81 72 -51 147 hintmask 1010111001000000
          -106 callgsubr
          hintmask 0101111001000000
          -79 callgsubr
          hintmask 0110111001000000
          -84 callsubr
          hintmask 1010111001000000
          -31 callgsubr
          hintmask 0101110110000000
          260 300 rmoveto
          68 45 40 62 62 -45 40 -68 -67 -45 -40 -62 -62 45 -40 67 hvcurveto
          55 vmoveto
          -22 -18 19 28 28 18 19 22 170 callgsubr
        </CharString>
        <CharString name="arrowdown">
          267 callsubr
          310 -26 rmoveto
          268 278 -80 70 -131 -150 rlineto
          357 -117 -357 vlineto
          -132 150 -79 -70 267 -278 rlineto
          endchar
        </CharString>
        <CharString name="arrowup">
          267 callsubr
          306 529 rmoveto
          -267 -278 79 -69 132 150 rlineto
          -358 117 358 vlineto
          131 -150 80 69 -268 278 rlineto
          endchar
        </CharString>
        <CharString name="asciicircum">
          -49 274 396 -133 133 hstemhm
          50 428 hintmask 10100000
          50 274 rmoveto
          121 hlineto
          46 128 rlineto
          hintmask 01100000
          45 135 -36 callsubr
          45 -135 46 -128 rlineto
          121 hlineto
          -155 396 rlineto
          -118 hlineto
          endchar
        </CharString>
        <CharString name="asciitilde">
          -49 240 104 -28 104 hstemhm
          29 470 hintmask 01100000
          105 258 rmoveto
          37 21 24 21 27 hhcurveto
          hintmask 10100000
          55 34 -76 83 hhcurveto
          50 51 28 75 49 hvcurveto
          -76 59 rlineto
          -37 -21 -23 -21 -28 hhcurveto
          hintmask 01100000
          -55 -34 76 -83 hhcurveto
          -50 -51 -28 -75 -49 hvcurveto
          endchar
        </CharString>
        <CharString name="asterisk">
          -120 349 363 hstem
          183.5 90 vstem
          148 349 rmoveto
          81 89 80 -89 61 44 -59 104 108 49 -24 72 -115 -25 -13 119 rlineto
          -77 hlineto
          -13 -118 -116 24 -23 -72 108 -49 -59 -104 rlineto
          endchar
        </CharString>
        <CharString name="at">
          326 -172 89 121 91 -81 92 209 94 137 89 hstemhm
          49 99 109 111 393 93 hintmask 11011111
          49 205 rmoveto
          -255 179 -122 200 71 64 15 33 61 vhcurveto
          -32 80 rlineto
          -22 -42 -58 -17 -52 hhcurveto
          -156 -136 95 197 225 169 146 171 196 77 -128 -143 -110 -59 -70 -60 -45 -15 28 58 14 hvcurveto
          46 220 rlineto
          -91 hlineto
          -14 -42 rlineto
          -2 hlineto
          36 -17 -26 14 -33 hhcurveto
          -115 -87 -123 -122 hvcurveto
          hintmask 10111111
          -92 53 -58 79 41 51 27 39 28 vhcurveto
          2 hlineto
          hintmask 11011111
          -48 11 47 -28 57 hhcurveto
          105 123 92 183 209 -138 147 -216 -246 -205 -184 -280 hvcurveto
          hintmask 10111111
          319 2 rmoveto
          60 36 82 60 20 16 -10 -19 10 vhcurveto
          -24 -135 rlineto
          -33 -25 -20 -12 -21 hhcurveto
          -33 -19 22 45 hvcurveto
          endchar
        </CharString>
        <CharString name="at.case">
          253 -34 84 88 90 -79 90 180 91 107 84 hstemhm
          49 96 90 111 342 93 hintmask 11011111
          49 293 rmoveto
          -230 164 -97 168 64 51 11 26 56 vhcurveto
          -34 75 rlineto
          -18 -35 -49 -10 -41 hhcurveto
          -125 -123 68 179 195 148 125 152 175 68 -104 -121 -108 -55 -56 -46 -32 -12 27 53 12 hvcurveto
          46 194 rlineto
          -90 hlineto
          -16 -42 rlineto
          -2 hlineto
          36 -16 -25 14 -32 hhcurveto
          -105 -80 -109 -117 hvcurveto
          hintmask 10111111
          -79 48 -56 66 42 52 27 40 26 vhcurveto
          2 hlineto
          hintmask 11011111
          -47 10 37 -31 55 hhcurveto
          109 99 91 169 177 -127 126 -198 -224 -183 -159 -249 hvcurveto
          hintmask 10111111
          334 -54 rmoveto
          -24 -13 19 34 52 30 75 48 21 11 -8 -19 10 hvcurveto
          -22 -111 rlineto
          -29 -24 -18 -13 -19 hhcurveto
          endchar
        </CharString>
        <CharString name="atilde">
          -66 callsubr
          223 callgsubr
          47 140 -72 75 136 147 hintmask 0110101010000000
          124 callsubr
          hintmask 1010101010000000
          -84 callgsubr
          hintmask 0110101010000000
          -104 callgsubr
          hintmask 1010101010000000
          -100 callgsubr
          hintmask 0110100110000000
          -72 426 rmoveto
          75 hlineto
          hintmask 0110010110000000
          175 callsubr
          hintmask 0110101010000000
          217 callsubr
          hintmask 0111001010000000
          -32 -7 -10 -12 -17 hhcurveto
          hintmask 0110101010000000
          -30 227 callgsubr
          hintmask 0110100110000000
          -52 -41 154 callgsubr
          endchar
        </CharString>
        <CharString name="atilde.a">
          -82 callsubr
          99 80 callsubr
          39 151 -56 75 152 147 hintmask 1010010101000000
          -106 callgsubr
          hintmask 0101010101000000
          -79 callgsubr
          hintmask 0110010101000000
          -84 callsubr
          hintmask 1010010101000000
          -31 callgsubr
          hintmask 0101010011000000
          95 327 rmoveto
          75 hlineto
          hintmask 0101001011000000
          33 7 10 12 17 hhcurveto
          hintmask 0101010101000000
          30 208 callsubr
          52 196 callsubr
          hintmask 0101100101000000
          -32 -7 -10 -12 -18 hhcurveto
          hintmask 0101010101000000
          146 callgsubr
          hintmask 0101010011000000
          -53 -40 154 callgsubr
          endchar
        </CharString>
        <CharString name="b">
          -4 -12 -71 callgsubr
          193 -20 137 callsubr
          171 151 hintmask 01111100
          65 hmoveto
          115 hlineto
          hintmask 10111100
          3 callgsubr
          endchar
        </CharString>
        <CharString name="b.sups">
          -192 254 82 179 84 hstem
          42 104 107 106 vstem
          42 262 rmoveto
          80 hlineto
          8 35 -36 callsubr
          -29 24 33 -14 30 270 callgsubr
          -31 -31 -15 -22 -25 hvcurveto
          4 50 rlineto
          112 -104 vlineto
          104 -369 105 callsubr
        </CharString>
        <CharString name="backslash">
          -238 -160 870 hstem
          28 298 vstem
          230 -160 rmoveto
          96 hlineto
          -202 870 rlineto
          -96 hlineto
          endchar
        </CharString>
        <CharString name="bar">
          -309 258 callsubr
          vstem
          86 -250 rmoveto
          96 1000 -96 hlineto
          endchar
        </CharString>
        <CharString name="braceleft">
          260 callsubr
          309 86 309 78 hstemhm
          31 125 -49 123 hintmask 11101000
          279 -74 rmoveto
          -41 -12 15 55 hvcurveto
          54 4 48 61 vvcurveto
          76 -24 29 -50 12 vhcurveto
          4 vlineto
          50 12 24 29 76 61 -4 48 54 vvcurveto
          55 12 15 41 vhcurveto
          19 78 -63 hlineto
          -88 -40 -34 -108 hvcurveto
          -71 10 -37 -63 vvcurveto
          hintmask 11110000
          -35 -21 -37 -65 -2 vhcurveto
          -86 vlineto
          hintmask 11101000
          65 -2 21 -37 -35 -63 -10 -37 -71 vvcurveto
          -108 40 -34 88 vhcurveto
          63 78 hlineto
          endchar
        </CharString>
        <CharString name="braceright">
          260 callsubr
          309 86 309 78 hstemhm
          114 123 -49 125 hintmask 11110000
          46 -74 rmoveto
          -78 63 vlineto
          88 40 34 108 hvcurveto
          71 -10 37 63 vvcurveto
          hintmask 11101000
          35 21 37 65 2 vhcurveto
          86 vlineto
          hintmask 11110000
          -65 2 -21 37 35 63 10 37 71 vvcurveto
          108 -40 34 -88 vhcurveto
          -63 -78 19 hlineto
          42 11 -15 -55 hvcurveto
          -54 -4 -48 -61 vvcurveto
          -76 24 -29 50 -12 vhcurveto
          -4 vlineto
          -50 -12 -24 -29 -76 -61 4 -48 -54 vvcurveto
          -55 -11 -15 -42 vhcurveto
          endchar
        </CharString>
        <CharString name="bracketleft">
          260 callsubr
          704 197 callgsubr
          -152 rmoveto
          211 78 -101 704 273 callsubr
        </CharString>
        <CharString name="bracketright">
          260 callsubr
          704 78 hstem
          148 109 vstem
          46 -74 rmoveto
          -78 211 860 -211 -78 102 -704 vlineto
          endchar
        </CharString>
        <CharString name="breve">
          -22 574 81 hstem
          138 82 115 82 vstem
          278 574 68 callsubr
          239 callsubr
          -36 134 callsubr
          241 callsubr
          94 hhcurveto
          endchar
        </CharString>
        <CharString name="brokenbar">
          -309 258 callsubr
          vstem
          86 312 rmoveto
          96 438 -96 hlineto
          -546 vmoveto
          -454 96 454 vlineto
          endchar
        </CharString>
        <CharString name="bullet">
          -232 123 278 hstem
          40 265 vstem
          172 123 rmoveto
          75 58 60 79 80 -58 59 -75 -74 -58 -59 -80 -79 58 -60 74 hvcurveto
          endchar
        </CharString>
        <CharString name="c">
          -110 29 callgsubr
          hstem
          36 151 vstem
          -86 callsubr
          endchar
        </CharString>
        <CharString name="c.sups">
          -264 254 82 181 82 hstem
          24 106 vstem
          187 254 rmoveto
          53 38 19 19 22 hvcurveto
          -42 66 rlineto
          -12 -14 -16 -10 -28 hhcurveto
          -42 -28 36 54 54 30 37 41 19 14 -7 -12 14 hvcurveto
          48 67 rlineto
          16 -17 -37 18 -50 hhcurveto
          -90 -78 -65 -108 -109 69 -63 94 hvcurveto
          endchar
        </CharString>
        <CharString name="cacute">
          -110 119 callgsubr
          hstem
          36 151 vstem
          -86 callsubr
          404 476 rmoveto
          -143 hlineto
          -88 -150 rlineto
          107 hlineto
          endchar
        </CharString>
        <CharString name="caron">
          -22 146 callsubr
          123 309 vstem
          219 574 -29 callsubr
          -54 123 callgsubr
        </CharString>
        <CharString name="ccaron">
          -110 119 callgsubr
          hstem
          36 151 vstem
          -86 callsubr
          196 326 12 callgsubr
        </CharString>
        <CharString name="ccedilla">
          -110 240 callgsubr
          398 119 hstem
          36 151 75 106 vstem
          325 -8 rmoveto
          42 8 44 19 35 31 -59 93 rcurveline
          -19 -24 -29 -17 -36 hhcurveto
          -64 -47 55 86 86 45 55 71 23 22 -9 -20 24 hvcurveto
          67 91 rlineto
          34 -33 -51 23 -61 hhcurveto
          -137 -121 -95 -165 -147 85 -92 117 -18 hvcurveto
          -34 -67 rlineto
          45 -11 13 -14 -17 vvcurveto
          -26 -34 -13 -14 callgsubr
          94 171 callgsubr
          -33 11 vhcurveto
          endchar
        </CharString>
        <CharString name="ccircumflex">
          -110 119 callgsubr
          hstem
          36 151 vstem
          -86 callsubr
          100 43 callsubr
          endchar
        </CharString>
        <CharString name="cdotaccent">
          -110 29 callgsubr
          61 154 264 callgsubr
          22 163 hintmask 11110000
          -86 callsubr
          hintmask 11111000
          254 321 -100 callsubr
        </CharString>
        <CharString name="cedilla">
          -22 -221 59 119 47 hstem
          259 106 vstem
          201 -76 rmoveto
          44 -36 callgsubr
          83 30 69 vvcurveto
          41 -25 22 -34 11 vhcurveto
          20 47 rlineto
          -85 hlineto
          endchar
        </CharString>
        <CharString name="cent">
          -49 -41 696 hstem
          60 143 72 81 vstem
          275 182 rmoveto
          -47 20 -25 45 60 vvcurveto
          60 24 44 48 21 vhcurveto
          153 -226 rmoveto
          -20 -16 -24 -14 -28 -5 rrcurveto
          272 vlineto
          19 -2 18 -9 20 -16 67 90 rcurveline
          -29 30 -43 21 -52 5 rrcurveto
          93 -81 -97 vlineto
          -124 -21 -91 -89 -141 vvcurveto
          -145 85 -91 130 -17 vhcurveto
          -95 81 95 vlineto
          45 6 48 20 38 33 rrcurveto
          endchar
        </CharString>
        <CharString name="circumflex">
          -22 146 callsubr
          123 309 vstem
          123 574 148 callgsubr
          endchar
        </CharString>
        <CharString name="colon">
          -277 -12 185 139 222 callsubr
          404 rmoveto
          8 callgsubr
          -324 vmoveto
          8 callgsubr
          endchar
        </CharString>
        <CharString name="colon.sups">
          -369 432 129 78 131 callsubr
          496 32 callgsubr
          207 vmoveto
          -37 27 -27 36 36 27 27 37 37 -27 28 -36 -36 -27 -28 -37 vhcurveto
          endchar
        </CharString>
        <CharString name="colonmonetary">
          -49 10 -21 28 -21 537 114 -6 -20 26 -20 hstemhm
          54 148 87 50 hintmask 01100110
          320 532 rmoveto
          1 6 7 0 7 hhcurveto
          7 6 -1 -1 6 hvcurveto
          -50 -426 -14 3 -13 5 -11 8 rlinecurve
          -44 55 rmoveto
          -16 36 -9 48 59 vvcurveto
          92 22 66 43 33 vhcurveto
          167 -354 rmoveto
          -22 -28 -24 -17 -29 -7 48 404 rcurveline
          9 -8 9 -9 9 -10 81 80 rcurveline
          -26 32 -33 24 -35 15 14 113 rcurveline
          -50 hlineto
          -12 -100 rlineto
          1 -10 -9 1 -10 -4 -3 0 -4 hhcurveto
          12 98 rlineto
          -50 hlineto
          hintmask 01010110
          -12 -104 rlineto
          -137 -26 -92 -117 -184 vvcurveto
          -155 61 -101 93 -45 vhcurveto
          -15 -123 rlineto
          50 hlineto
          13 106 12 -3 13 -2 14 -2 rlinecurve
          hintmask 10001110
          -12 -99 rlineto
          50 hlineto
          12 99 67 5 57 32 47 54 rlinecurve
          endchar
        </CharString>
        <CharString name="comma">
          -277 6 167 hstem
          159 97 vstem
          76 -194 rmoveto
          66 callgsubr
        </CharString>
        <CharString name="comma.dnom">
          -369 1 174 callgsubr
          -130 7 callgsubr
        </CharString>
        <CharString name="comma.numr">
          -369 263 174 callgsubr
          131 rmoveto
          79 24 45 55 76 vvcurveto
          62 -26 35 -45 -36 -29 -25 -36 -38 30 -21 33 vhcurveto
          1 2 0 1 hhcurveto
          -39 -27 -21 -50 -17 vhcurveto
          endchar
        </CharString>
        <CharString name="comma.subs">
          -369 -253 174 callgsubr
          -384 7 callgsubr
        </CharString>
        <CharString name="comma.sups">
          -369 441 174 callgsubr
          310 7 callgsubr
        </CharString>
        <CharString name="copyright">
          173 -9 61 75 86 217 86 79 60 hstem
          45 68 81 105 338 67 vstem
          45 325 0 callsubr
          81 -1 rmoveto
          -121 81 -76 112 52 42 22 30 38 vhcurveto
          -48 68 rlineto
          -20 -25 -22 -14 -33 hhcurveto
          -56 -36 43 68 59 34 47 63 27 20 -12 -22 21 hvcurveto
          55 61 rlineto
          32 -32 -39 27 -61 hhcurveto
          -101 -92 -75 -117 hvcurveto
          endchar
        </CharString>
        <CharString name="currency">
          -49 130 102 196 102 hstem
          47 131 172 131 vstem
          93 83 rmoveto
          70 71 rlineto
          -16 31 35 -8 35 hhcurveto
          34 36 8 16 31 hvcurveto
          70 -71 73 74 -61 62 rlineto
          21 30 13 37 44 vvcurveto
          43 -12 37 -22 29 vhcurveto
          61 62 -73 74 -69 -70 rlineto
          16 -32 -35 9 -35 hhcurveto
          -35 -36 -9 -16 -31 hvcurveto
          -69 70 -73 -74 60 -62 rlineto
          -21 -29 -12 -37 -43 vvcurveto
          -44 12 -37 22 -30 vhcurveto
          -61 -62 rlineto
          158 173 rmoveto
          59 38 39 48 48 38 -39 -59 -60 -38 -38 -48 -48 -38 38 60 vhcurveto
          endchar
        </CharString>
        <CharString name="d">
          -4 -12 -71 callgsubr
          193 -20 13 callsubr
          hintmask 01111100
          39 248 rmoveto
          hintmask 10111100
          61 callgsubr
          hintmask 01111100
          -8 callsubr
          hintmask 10111100
          -40 callgsubr
          endchar
        </CharString>
        <CharString name="d.sups">
          -192 254 82 181 82 hstem
          26 106 108 104 vstem
          163 254 rmoveto
          33 30 17 22 23 hvcurveto
          2 hlineto
          8 -31 rlineto
          85 462 -104 -107 hlineto
          5 -53 rlineto
          21 -20 -27 14 -34 hhcurveto
          -67 -71 -64 -103 -113 53 -65 84 hvcurveto
          28 82 rmoveto
          -38 -21 28 68 57 27 28 31 16 16 -5 -16 18 hvcurveto
          -131 vlineto
          -21 -15 -15 -8 -19 hhcurveto
          endchar
        </CharString>
        <CharString name="dagger">
          -67 434 109.5 192 callsubr
          196 -80 rmoveto
          118 hlineto
          -9 518 161 -8 104 callgsubr
          8 rlineto
          endchar
        </CharString>
        <CharString name="daggerdbl">
          -67 88.5 107.5 240 107.5 192 callsubr
          44 84 rmoveto
          161 9 -9 -173 rlineto
          118 hlineto
          -9 173 161 -9 rlineto
          118 vlineto
          -161 -12 9 126 -9 126 161 -12 104 callgsubr
          12 -9 -126 9 -126 -161 12 rlineto
          endchar
        </CharString>
        <CharString name="dcaron">
          37 -12 -71 callgsubr
          40 153 -153 222 13 callsubr
          41 91 hintmask 01110111
          39 248 rmoveto
          hintmask 10110111
          61 callgsubr
          hintmask 01110111
          -8 callsubr
          hintmask 10110111
          -40 callgsubr
          425 298 rmoveto
          hintmask 01101111
          202 callsubr
          -95 hlineto
          hintmask 01110111
          6 277 callsubr
        </CharString>
        <CharString name="dcroat">
          -4 -12 120 -87 -21 368 120 68 71 -71 145 13 callsubr
          hintmask 10110110
          361 153 rmoveto
          -33 -24 -25 -12 -32 hhcurveto
          -57 -33 39 93 87 42 41 47 27 29 -8 -24 26 hvcurveto
          215 291 rmoveto
          -68 hlineto
          hintmask 01101110
          74 -147 vlineto
          hintmask 01110110
          -74 -149 vlineto
          hintmask 10101110
          -71 149 -44 vlineto
          6 -76 rlineto
          32 -34 -33 20 -55 hhcurveto
          -105 -101 -96 -154 -158 80 -92 123 50 46 23 33 34 hvcurveto
          4 hlineto
          hintmask 01110110
          9 -44 rlineto
          123 557 hlineto
          68 5 rlineto
          endchar
        </CharString>
        <CharString name="degree">
          -212 398 70 147 71 hstem
          39 77 134 78 vstem
          183 398 rmoveto
          81 64 60 84 84 -64 60 -81 -80 -64 -60 -84 -84 64 -60 80 hvcurveto
          70 vmoveto
          -39 -28 30 44 43 28 30 39 40 27 -30 -43 -44 -27 -30 -40 hvcurveto
          endchar
        </CharString>
        <CharString name="dieresis">
          -22 571 139 hstem
          109 139 59 140 vstem
          178 571 44 callsubr
        </CharString>
        <CharString name="divide">
          -49 73 154 51 104 51 154 hstem
          183 162 vstem
          264 433 rmoveto
          46 35 32 45 45 -35 32 -46 -46 -35 -32 -45 -45 35 -32 46 hvcurveto
          -81 -283 rmoveto
          -45 35 -32 46 46 35 32 45 45 -35 32 -46 -46 -35 -32 -45 vhcurveto
          -149 128 rmoveto
          205 callsubr
          endchar
        </CharString>
        <CharString name="dollar">
          -49 -110 217 -96 -21 25 -21 534 217 -103 -20 22 -20 hstemhm
          63 141 11 97 15 141 hintmask 0010010100000000
          461 562 rmoveto
          -39 41 -46 32 -64 9 rrcurveto
          hintmask 0011000100000000
          101 -97 vlineto
          hintmask 0010100100000000
          -103 vlineto
          hintmask 1000101110000000
          -94 -19 -58 -68 -98 -180 264 2 -103 vvcurveto
          -46 -25 -23 -56 -48 -44 20 38 -51 vhcurveto
          hintmask 0100010100000000
          -64 -99 47 -43 70 -26 59 -7 rlinecurve
          hintmask 1000010100000000
          -100 97 vlineto
          hintmask 0010010100000000
          104 vlineto
          hintmask 0011001110000000
          103 22 53 74 96 191 -264 -8 95 vvcurveto
          45 26 19 48 42 31 -17 -33 36 vhcurveto
          endchar
        </CharString>
        <CharString name="dong">
          -49 0 74 42 97 173 99 43 74 hstem
          65 124 134 121 vstem
          78 hmoveto
          399 74 -399 hlineto
          245 175 rmoveto
          -26 -22 -19 -10 -26 hhcurveto
          -41 -26 29 63 51 35 30 36 24 18 -7 -19 21 hvcurveto
          121 242 rmoveto
          49 -121 -49 -144 -74 144 -15 vlineto
          4 -67 rlineto
          26 -28 -25 13 -44 hhcurveto
          -81 -84 -67 -112 -122 63 -68 98 42 38 18 28 26 hvcurveto
          3 hlineto
          9 -36 rlineto
          100 402 hlineto
          73 6 rlineto
          68 vlineto
          endchar
        </CharString>
        <CharString name="dotaccent">
          -22 569 154 hstem
          196 163 vstem
          278 569 -98 callgsubr
        </CharString>
        <CharString name="dotlessi">
          -301 21 -21 496 184 callgsubr
          496 -147 hlineto
          endchar
        </CharString>
        <CharString name="e">
          -54 callsubr
          hstem
          356 125 vstem
          -107 callgsubr
          endchar
        </CharString>
        <CharString name="e.sups">
          -231 254 78 67 59 62 79 hstem
          24 97 116 87 vstem
          193 254 rmoveto
          40 45 13 24 36 hvcurveto
          -35 62 rlineto
          -15 -24 -24 -6 -24 hhcurveto
          -43 -33 19 48 -8 hvcurveto
          196 hlineto
          4 15 1 9 18 vvcurveto
          82 -43 76 -99 -84 -74 -67 -106 -108 74 -64 95 vhcurveto
          -72 204 rmoveto
          43 7 24 19 31 hhcurveto
          40 14 -29 -33 hvcurveto
          endchar
        </CharString>
        <CharString name="eacute">
          64 callgsubr
          150 hstem
          356 125 vstem
          -107 callgsubr
          63 425 -48 callsubr
          endchar
        </CharString>
        <CharString name="eacute.sups">
          167 callsubr
          126 641 rmoveto
          76 hlineto
          83 100 rlineto
          -100 hlineto
          8 4 callgsubr
        </CharString>
        <CharString name="ebreve">
          64 callgsubr
          187 callgsubr
          131 274 callgsubr
          -53 125 hintmask 11101101
          -107 callgsubr
          -86 275 rmoveto
          hintmask 11101110
          62 callgsubr
          -82 hlineto
          hintmask 11110110
          -32 -4 -18 -26 -35 hhcurveto
          hintmask 11101101
          172 callsubr
          61 callsubr
        </CharString>
        <CharString name="ecaron">
          64 callgsubr
          150 hstem
          356 125 vstem
          -107 callgsubr
          -145 275 rmoveto
          117 hlineto
          96 83 callsubr
        </CharString>
        <CharString name="ecircumflex">
          64 callgsubr
          150 hstem
          356 125 vstem
          -107 callgsubr
          -240 275 rmoveto
          99 hlineto
          53 -73 callgsubr
          endchar
        </CharString>
        <CharString name="edieresis">
          -54 callsubr
          63 139 hstemhm
          101 87 callsubr
          -83 125 hintmask 11111010
          -107 callgsubr
          -185 272 rmoveto
          -54 callgsubr
          hintmask 11111100
          198 hmoveto
          -54 callgsubr
          endchar
        </CharString>
        <CharString name="edotaccent">
          -54 callsubr
          61 154 hstemhm
          188 163 5 125 hintmask 11100100
          -107 callgsubr
          hintmask 11111000
          -86 270 -62 callsubr
        </CharString>
        <CharString name="egrave">
          64 callgsubr
          150 hstem
          356 125 vstem
          -107 callgsubr
          -112 275 rmoveto
          108 13 callgsubr
        </CharString>
        <CharString name="egrave.sups">
          167 callsubr
          161 641 rmoveto
          76 hlineto
          -58 100 rlineto
          -101 hlineto
          115 4 callgsubr
        </CharString>
        <CharString name="eight">
          -49 -12 102 455 102 hstemhm
          42 90 callsubr
          168 -87 callsubr
        </CharString>
        <CharString name="eight.dnom">
          -201 -12 38 callsubr
          110 rmoveto
          21 67 callsubr
          28 vhcurveto
          hintmask 11011000
          68 128 209 callgsubr
          -25 -16 -51 callgsubr
        </CharString>
        <CharString name="eight.numr">
          -201 250 38 callsubr
          371 rmoveto
          22 12 21 22 14 vhcurveto
          39 -19 31 -9 -30 vvcurveto
          -27 -23 -21 -29 -30 -22 22 27 vhcurveto
          hintmask 11011000
          68 129 rmoveto
          -32 13 -25 13 28 vvcurveto
          20 18 16 22 24 18 -15 -26 -16 -8 -17 -17 -16 vhcurveto
          hintmask 11100100
          57 callsubr
          88 87 62 49 63 49 -31 35 -39 20 vhcurveto
          4 vlineto
          hintmask 11011000
          31 18 27 32 37 vvcurveto
          67 -60 40 -77 -75 -61 -41 -66 -40 24 -27 34 -24 vhcurveto
          -4 vlineto
          hintmask 11100100
          -36 113 callgsubr
        </CharString>
        <CharString name="eight.onum">
          -30 -12 102 455 102 hstemhm
          50 90 callsubr
          176 -87 callsubr
        </CharString>
        <CharString name="eight.pnum">
          -28 -12 102 455 102 hstemhm
          51 127 -103 129 148 119 -110 136 hintmask 11100100
          178 179 rmoveto
          39 21 36 28 26 vhcurveto
          80 -34 54 -21 -56 vvcurveto
          -53 -37 -26 -48 -53 -45 33 56 vhcurveto
          hintmask 11011000
          135 191 rmoveto
          -65 25 -44 25 52 vvcurveto
          49 32 24 38 49 29 -33 -49 -33 -14 -31 -25 -29 vhcurveto
          hintmask 11100100
          -262 -208 rmoveto
          -103 95 -71 127 134 90 76 100 84 -48 49 -61 33 vhcurveto
          4 vlineto
          hintmask 11011000
          43 29 40 49 61 vvcurveto
          105 -77 69 -116 -118 -85 -67 -108 -67 36 -46 49 -37 vhcurveto
          -4 vlineto
          hintmask 11100100
          -60 -32 -49 -47 -77 vvcurveto
          endchar
        </CharString>
        <CharString name="eight.sc">
          -66 -12 98 356 98 hstemhm
          47 128 -108 125 128 120 -105 130 hintmask 11100100
          175 151 rmoveto
          35 23 23 23 17 vhcurveto
          73 -25 41 -18 -40 vvcurveto
          -41 -33 -16 -42 -45 -40 24 41 vhcurveto
          hintmask 11011000
          112 162 rmoveto
          -59 18 -36 23 35 vvcurveto
          37 26 16 34 42 26 -22 -37 -23 -12 -27 -21 -20 vhcurveto
          hintmask 11100100
          -240 -183 rmoveto
          -83 88 -59 118 127 85 63 89 70 -44 41 -57 27 vhcurveto
          3 vlineto
          hintmask 11011000
          41 25 35 37 56 vvcurveto
          83 -73 58 -113 -107 -80 -57 -94 -54 32 -40 47 -31 vhcurveto
          -4 vlineto
          hintmask 11100100
          -55 -26 -44 -38 -66 vvcurveto
          endchar
        </CharString>
        <CharString name="eight.subs">
          -201 -266 38 callsubr
          -145 rmoveto
          22 67 callsubr
          27 vhcurveto
          hintmask 11011000
          68 129 209 callgsubr
          -26 -15 -51 callgsubr
        </CharString>
        <CharString name="eight.sups">
          -201 428 38 callsubr
          550 rmoveto
          21 67 callsubr
          28 vhcurveto
          hintmask 11011000
          68 128 209 callgsubr
          -25 -16 -51 callgsubr
        </CharString>
        <CharString name="eight.tnum">
          -49 -12 102 455 102 hstemhm
          42 90 callsubr
          168 -87 callsubr
        </CharString>
        <CharString name="ellipsis">
          401 -12 185 hstem
          77 177 154 178 154 177 vstem
          77 80 rmoveto
          -52 37 -40 51 56 callsubr
          -51 -37 -40 -53 vhcurveto
          331 hmoveto
          8 callgsubr
          332 hmoveto
          -52 37 -40 51 56 callsubr
          -51 -37 -40 -53 vhcurveto
          endchar
        </CharString>
        <CharString name="emacron">
          -54 callsubr
          84 93 hstemhm
          132 276 -52 125 hintmask 11110100
          -107 callgsubr
          hintmask 11111000
          -224 293 -6 callgsubr
        </CharString>
        <CharString name="emdash">
          139 callgsubr
        </CharString>
        <CharString name="emdash.sc">
          119 223 94 hstem
          43 610 vstem
          43 223 rmoveto
          610 94 -610 hlineto
          endchar
        </CharString>
        <CharString name="emdash.sups">
          -14 605 64 hstem
          43 478 vstem
          43 605 rmoveto
          478 64 -478 hlineto
          endchar
        </CharString>
        <CharString name="endash">
          -97 206 94 hstem
          43 394 vstem
          43 206 rmoveto
          394 94 -394 hlineto
          endchar
        </CharString>
        <CharString name="endash.sc">
          -159 223 94 hstem
          43 332 vstem
          43 223 rmoveto
          332 94 -332 hlineto
          endchar
        </CharString>
        <CharString name="endash.sups">
          -228 605 64 hstem
          43 263 vstem
          43 605 rmoveto
          263 64 -263 hlineto
          endchar
        </CharString>
        <CharString name="eogonek">
          -59 -210 87 111 112 108 91 97 112 hstemhm
          36 141 81 97 1 125 hintmask 11111010
          -19 callsubr
          -164 109 -96 142 vhcurveto
          hintmask 11111100
          7 8 0 3 12 hvcurveto
          -25 -22 -31 -39 -49 vvcurveto
          -60 45 -31 59 32 44 132 callgsubr
          -10 -12 -6 -13 hhcurveto
          -24 -19 12 26 39 20 29 88 61 hvcurveto
          -49 89 rlineto
          -22 -36 -34 -11 -37 hhcurveto
          -66 -50 33 75 -13 hvcurveto
          hintmask 11111010
          297 hlineto
          3 12 3 23 27 vvcurveto
          135 -70 103 -141 -119 -115 -99 -161 vhcurveto
          141 51 rmoveto
          67 10 40 30 -23 callgsubr
          endchar
        </CharString>
        <CharString name="equal">
          228 callgsubr
          34 395 rmoveto
          460 103 -460 hlineto
          -336 vmoveto
          460 103 -460 hlineto
          endchar
        </CharString>
        <CharString name="estimated">
          223 -11 20 307 19 306 20 hstem
          46 130 450 129 vstem
          184 108 rmoveto
          -4 6 -4 7 8 vvcurveto
          183 vlineto
          3 2 1 2 vhcurveto
          575 hlineto
          3 0 3 3 vvcurveto
          186 -158 150 -196 -196 -159 -150 -186 -186 159 -150 196 114 102 52 79 65 vhcurveto
          -52 hlineto
          -68 -55 -82 -43 -91 hhcurveto
          -86 -78 38 61 -54 hvcurveto
          -4 227 rmoveto
          -2 -2 2 3 hvcurveto
          180 vlineto
          9 4 8 5 6 vhcurveto
          60 55 76 38 86 hhcurveto
          83 76 -37 -58 56 hvcurveto
          5 -6 4 -7 -9 vvcurveto
          -184 vlineto
          -3 -2 -2 -3 vhcurveto
          endchar
        </CharString>
        <CharString name="eth">
          -17 -12 119 239 109 hstem
          42 134 197 137 vstem
          278 107 rmoveto
          -55 -47 42 79 80 41 38 58 34 33 -10 -33 30 hvcurveto
          1 -15 0 -14 -16 vvcurveto
          -103 -39 -48 -56 vhcurveto
          217 555 rmoveto
          -38 65 -143 -72 -44 33 -47 28 -47 24 rlinecurve
          -64 -89 33 -17 30 -17 27 -19 rlinecurve
          -116 -58 38 -65 142 71 39 -37 28 -43 18 -53 rlinecurve
          30 -28 -39 12 -39 hhcurveto
          -104 -99 -84 -143 -147 107 -93 124 147 90 117 161 149 -56 106 -79 80 hvcurveto
          endchar
        </CharString>
        <CharString name="exclam">
          -237 -12 185 -164 -21 179 callsubr
          122 231 rmoveto
          96 hlineto
          21 306 rlineto
          hintmask 01010000
          5 133 rlineto
          -148 hlineto
          5 -133 rlineto
          hintmask 01100000
          -20 -457 rmoveto
          -52 38 -40 51 51 38 40 52 vhcurveto
          hintmask 10100000
          244 callgsubr
          vhcurveto
          hintmask 01100000
          -51 -38 -40 -53 hvcurveto
          endchar
        </CharString>
        <CharString name="exclamdown">
          -237 323 185 0 -20 179 callsubr
          218 265 rmoveto
          -96 hlineto
          -21 -306 rlineto
          hintmask 01010000
          -5 -133 rlineto
          148 hlineto
          -5 133 rlineto
          hintmask 01100000
          20 457 rmoveto
          52 -38 164 callgsubr
          hintmask 10100000
          -53 38 -40 51 vhcurveto
          hintmask 01100000
          51 38 40 53 hvcurveto
          endchar
        </CharString>
        <CharString name="f">
          -236 21 92 callsubr
          101 116 0 -20 hstemhm
          90 147 hintmask 10101100
          372 695 rmoveto
          hintmask 11010100
          50 callsubr
          -27 vlineto
          -66 -5 rlineto
          hintmask 10110100
          0 callgsubr
          endchar
        </CharString>
        <CharString name="f.sups">
          -345 511 80 67 81 hstem
          60 104 vstem
          253 727 rmoveto
          7 -16 -24 5 -27 hhcurveto
          -93 -33 -65 -71 hvcurveto
          -12 vlineto
          -45 -4 rlineto
          -76 45 -249 104 249 58 80 -58 16 vlineto
          35 14 16 22 13 12 -2 -2 9 vhcurveto
          endchar
        </CharString>
        <CharString name="f_f">
          79 21 -21 381 115 91 116 -106 116 -10 -20 30 -20 hstemhm
          90 147 169 147 hintmask 11000111
          687 695 rmoveto
          hintmask 11010011
          8 -22 -35 10 -42 hhcurveto
          -133 -49 -86 -105 hvcurveto
          -26 -169 vlineto
          hintmask 11100011
          23 vlineto
          47 25 21 34 27 15 -4 -7 16 vhcurveto
          hintmask 11001011
          27 109 rlineto
          hintmask 11100011
          9 -23 -38 9 -42 hhcurveto
          -135 -53 -83 -102 hvcurveto
          -23 vlineto
          -66 -5 rlineto
          -109 66 -381 147 381 169 -381 147 381 89 115 -89 vlineto
          hintmask 11010011
          30 vlineto
          51 21 20 36 vhcurveto
          hintmask 11100011
          16 18 -4 -6 17 hvcurveto
          endchar
        </CharString>
        <CharString name="f_t">
          111 -12 115 -82 -21 381 115 101 116 0 -20 hstemhm
          90 147 153 147 hintmask 10110110
          648 113 rmoveto
          -5 -13 -18 -5 -16 hhcurveto
          -39 -25 23 56 hvcurveto
          199 119 115 -119 132 -122 vlineto
          -17 -132 rlineto
          -161 30 hlineto
          51 21 20 36 16 18 -4 -6 17 vhcurveto
          hintmask 01101110
          27 108 rlineto
          hintmask 01110110
          50 callsubr
          -27 vlineto
          -66 -5 rlineto
          -109 66 -381 147 381 153 -201 vlineto
          hintmask 10110110
          -115 48 -77 123 48 36 10 8 26 vhcurveto
          endchar
        </CharString>
        <CharString name="fi">
          58 21 92 callsubr
          73 153 -125 116 0 -20 hstemhm
          90 147 175 170 -158 147 hintmask 1100101010000000
          257 callgsubr
          hintmask 1010101010000000
          0 callgsubr
          hintmask 1010011010000000
          27 108 rlineto
          hintmask 1010101010000000
          50 callsubr
          hintmask 1011001100000000
          407 47 33 callgsubr
          hintmask 1010101010000000
          95 callsubr
          endchar
        </CharString>
        <CharString name="figuredash">
          -49 206 94 hstem
          43 442 vstem
          43 206 rmoveto
          442 94 -442 hlineto
          endchar
        </CharString>
        <CharString name="five">
          -28 callsubr
        </CharString>
        <CharString name="five.dnom">
          -201 -12 15 callgsubr
          67 -46 callgsubr
        </CharString>
        <CharString name="five.numr">
          -201 250 15 callgsubr
          329 rmoveto
          -51 35 55 -28 70 hhcurveto
          88 63 58 77 80 -58 48 -69 -11 -18 -2 -5 -17 hvcurveto
          6 55 rlineto
          151 91 -236 hlineto
          -17 -194 46 -32 rlineto
          16 19 16 7 23 hhcurveto
          32 27 -21 -38 -32 -24 -26 -33 -34 -24 15 33 -25 hvcurveto
          endchar
        </CharString>
        <CharString name="five.onum">
          -30 callsubr
        </CharString>
        <CharString name="five.pnum">
          -28 callsubr
        </CharString>
        <CharString name="five.sc">
          -83 -11 112 143 96 68 120 hstem
          77.5 124.5 99 143 vstem
          24 64 rmoveto
          -43 47 65 -32 91 hhcurveto
          118 99 69 118 112 -84 52 -100 -20 -21 -4 -7 -20 hvcurveto
          6 79 rlineto
          215 120 -335 hlineto
          -15 -273 63 -40 rlineto
          21 35 16 8 36 hhcurveto
          45 36 -27 -44 -46 -32 -26 -54 -49 -43 27 27 -34 hvcurveto
          endchar
        </CharString>
        <CharString name="five.subs">
          -201 -266 15 callgsubr
          -187 -46 callgsubr
        </CharString>
        <CharString name="five.sups">
          -201 428 15 callgsubr
          507 -46 callgsubr
        </CharString>
        <CharString name="five.tnum">
          -30 callsubr
        </CharString>
        <CharString name="fiveeighths">
          272 -12 72 190 82 -4 74 47 64 48 91 hstemhm
          77.5 90.5 64 106 173 258 callgsubr
          hintmask 1101111010100000
          27 329 rmoveto
          -51 35 55 -28 70 hhcurveto
          88 63 58 77 80 -58 48 -69 -11 -18 -2 -5 -17 hvcurveto
          6 55 rlineto
          151 91 -236 hlineto
          -17 -194 46 -32 rlineto
          16 19 16 7 23 hhcurveto
          32 27 -21 -38 -32 -24 -26 -33 -34 -24 15 33 -25 hvcurveto
          199 -392 68 callgsubr
          hintmask 1101111100100000
          403 37 callgsubr
          hintmask 1011111011000000
          12 callsubr
          23 19 220 callgsubr
          hintmask 1101111100100000
          48 callgsubr
          hintmask 1011111011000000
          32 71 callgsubr
          -78 33 callsubr
          hintmask 1101111100100000
          -35 113 callgsubr
        </CharString>
        <CharString name="fl">
          50 -12 119 -98 -21 33 92 callsubr
          101 116 -12 -20 32 -20 hstemhm
          90 147 169 147 hintmask 0011010011000000
          257 callgsubr
          hintmask 0010110011000000
          0 callgsubr
          hintmask 0010100111000000
          27 108 rlineto
          hintmask 1000110011000000
          50 callsubr
          507 -413 rmoveto
          -2 -8 -4 0 -6 hhcurveto
          -12 -14 10 31 hvcurveto
          hintmask 0100101011000000
          553 -147 -547 vlineto
          10 callgsubr
          endchar
        </CharString>
        <CharString name="fl.a">
          58 381 115 101 116 hstem
          90 147 187 147 vstem
          257 callgsubr
          0 callgsubr
          27 108 rlineto
          50 callsubr
          334 179 rmoveto
          -701 147 701 vlineto
          endchar
        </CharString>
        <CharString name="four">
          -49 249 callsubr
          294 137 vstem
          160 264 rmoveto
          84 138 18 36 18 36 16 35 rlinecurve
          4 hlineto
          -2 -40 -4 75 callgsubr
        </CharString>
        <CharString name="four.dnom">
          -201 87 70 117 callsubr
          157 -22 callsubr
          -141 -249 rlineto
          -54 179 -87 96 87 58 vlineto
          endchar
        </CharString>
        <CharString name="four.numr">
          -201 348 71 117 callsubr
          419 -22 callsubr
          -141 -250 rlineto
          -54 179 -86 96 86 58 vlineto
          endchar
        </CharString>
        <CharString name="four.onum">
          -32 83 112 257 126 hstem
          302 137 vstem
          168 26 callsubr
        </CharString>
        <CharString name="four.pnum">
          -17 249 callsubr
          312 137 vstem
          178 264 rmoveto
          83 138 18 36 18 36 16 35 rlinecurve
          4 hlineto
          -2 -40 -3 75 callgsubr
        </CharString>
        <CharString name="four.sc">
          -54 21 -21 118 106 184 120 hstem
          284 136 vstem
          174 224 rmoveto
          66 102 18 34 8 13 19 35 rlinecurve
          4 hlineto
          -2 -36 -3 -50 -36 vvcurveto
          -62 vlineto
          200 hmoveto
          -64 304 -179 hlineto
          -203 -309 rlineto
          -101 246 -118 136 118 64 vlineto
          endchar
        </CharString>
        <CharString name="four.subs">
          -201 -167 70 117 callsubr
          -97 -22 callsubr
          -141 -249 rlineto
          -54 179 -87 96 87 58 vlineto
          endchar
        </CharString>
        <CharString name="four.sups">
          -201 527 70 117 callsubr
          597 -22 callsubr
          -141 -249 rlineto
          -54 179 -87 96 87 58 vlineto
          endchar
        </CharString>
        <CharString name="four.tnum">
          -49 83 112 257 126 hstem
          294 137 vstem
          160 26 callsubr
        </CharString>
        <CharString name="fraction">
          -481 -12 676 hstem
          -171 437 vstem
          -86 -12 -10 callsubr
          endchar
        </CharString>
        <CharString name="g">
          -20 callgsubr
          8 callsubr
          146 127 -69 140 hintmask 1111010001000000
          -96 callgsubr
          hintmask 1111000110000000
          -88 callsubr
          hintmask 1110101010000000
          -50 callsubr
          hintmask 1111000110000000
          -21 callsubr
          hintmask 1111010001000000
          -46 -26 -25 -33 -41 vvcurveto
          hintmask 1110101010000000
          -64 callgsubr
          endchar
        </CharString>
        <CharString name="g.a">
          -58 callgsubr
        </CharString>
        <CharString name="g.supa">
          -185 124 80 72 83 155 84 hstem
          30 105 109 103 vstem
          85 227 rmoveto
          -35 -66 rlineto
          -25 39 50 -12 36 hhcurveto
          109 63 50 93 hvcurveto
          323 -82 vlineto
          -8 -31 rlineto
          -3 hlineto
          28 -24 -28 11 -33 hhcurveto
          -69 -70 -64 -100 -93 53 -65 84 29 27 12 20 24 hvcurveto
          -3 -33 rlineto
          -5 vlineto
          -35 -22 -31 -47 -26 -34 7 16 -30 vhcurveto
          109 132 rmoveto
          -38 -21 26 51 53 26 25 30 17 20 -5 -14 16 hvcurveto
          -108 vlineto
          -21 -16 -15 -7 -19 hhcurveto
          endchar
        </CharString>
        <CharString name="g.sups">
          -216 123 64 61 78 39 62 88 76 -61 69 hstemhm
          23 84 -76 96 -88 81 93 89 -52 99 hintmask 1111010001000000
          107 223 rmoveto
          11 6 9 11 9 vhcurveto
          -4 14 16 0 15 hhcurveto
          33 hlineto
          32 16 -5 -19 -21 -29 -16 -43 -43 -28 12 24 hvcurveto
          -84 -17 rmoveto
          -59 61 -24 77 117 71 50 69 60 -43 24 -84 vhcurveto
          hintmask 1111000110000000
          -53 hlineto
          -36 -13 6 16 10 4 6 7 6 hvcurveto
          -5 16 12 0 11 hhcurveto
          72 60 35 75 16 -4 16 -5 8 hvcurveto
          51 76 -121 hlineto
          6 -15 -19 2 -19 hhcurveto
          hintmask 1111001010000000
          -73 -66 -40 -80 -38 21 -31 24 -16 hvcurveto
          -4 vlineto
          hintmask 1111000110000000
          -23 -15 -14 -23 -23 vvcurveto
          -27 12 -16 18 -12 vhcurveto
          -4 vlineto
          hintmask 1111010001000000
          -30 -15 -16 -21 -28 vvcurveto
          hintmask 1110101010000000
          147 221 rmoveto
          -25 -18 18 34 34 18 17 25 25 18 -17 -34 -34 -18 -18 -25 hvcurveto
          endchar
        </CharString>
        <CharString name="gbreve">
          -20 callgsubr
          66 81 -81 139 8 callsubr
          -63 274 callgsubr
          -69 127 -69 140 hintmask 1111001100000100
          -96 callgsubr
          hintmask 1111001001001000
          -88 callsubr
          hintmask 1110101010001000
          -50 callsubr
          hintmask 1111001001001000
          -21 callsubr
          hintmask 1111001100000100
          -46 -26 -25 -33 -41 vvcurveto
          hintmask 1110101010001000
          -64 callgsubr
          hintmask 1111001000110000
          -2 328 rmoveto
          94 43 67 72 2 hvcurveto
          -82 hlineto
          hintmask 1111010010010000
          -32 -4 -17 -26 -36 hhcurveto
          hintmask 1111001000101000
          -35 134 callsubr
          hintmask 1111001000110000
          61 callsubr
        </CharString>
        <CharString name="gbreve.a">
          -34 callsubr
          98 187 callgsubr
          44 149 -31 274 callgsubr
          -74 147 hintmask 1101011001000000
          -81 callgsubr
          hintmask 1110011001000000
          -92 callgsubr
          hintmask 1101011001000000
          -40 -50 11 26 -47 hvcurveto
          161 173 rmoveto
          -57 -35 46 82 hvcurveto
          hintmask 1110011001000000
          83 42 46 49 27 29 -8 -24 26 vhcurveto
          -178 vlineto
          hintmask 1101011001000000
          -35 -26 -23 -12 -32 hhcurveto
          hintmask 1101010110000000
          16 443 68 callsubr
          hintmask 1101101010000000
          -32 -4 -18 -26 -35 hhcurveto
          hintmask 1101010101000000
          172 callsubr
          hintmask 1101010110000000
          61 callsubr
        </CharString>
        <CharString name="gcaron">
          -83 callsubr
          -60 328 12 callgsubr
        </CharString>
        <CharString name="gcaron.a">
          -59 callgsubr
          -43 443 rmoveto
          117 hlineto
          96 83 callsubr
        </CharString>
        <CharString name="gcircumflex">
          -83 callsubr
          -156 328 rmoveto
          99 hlineto
          53 79 -36 callsubr
          54 175 callgsubr
          -117 hlineto
          endchar
        </CharString>
        <CharString name="gcircumflex.a">
          -59 callgsubr
          -138 443 rmoveto
          99 hlineto
          53 -73 callgsubr
          endchar
        </CharString>
        <CharString name="gdotaccent">
          -20 callgsubr
          61 154 8 callsubr
          -5 163 -12 -95 callgsubr
          hintmask 1111010001000000
          -2 323 -100 callsubr
        </CharString>
        <CharString name="gdotaccent.a">
          -34 callsubr
          93 154 hstemhm
          44 149 26 163 -16 -85 callgsubr
          hintmask 11011110
          16 438 -62 callsubr
        </CharString>
        <CharString name="germandbls">
          55 -12 109 -97 33 -12 -21 595 116 hstemhm
          65 145 85 134 -63 141 -36 134 hintmask 00111010
          65 hmoveto
          145 470 hlineto
          77 31 48 61 41 23 -29 -39 vhcurveto
          hintmask 10011101
          -73 -71 -27 -77 -132 176 3 -76 vvcurveto
          -28 -21 -20 -34 -31 -30 11 25 -34 vhcurveto
          hintmask 01011101
          -51 -100 rlineto
          hintmask 10011101
          -28 48 44 -17 59 hhcurveto
          121 63 73 91 hvcurveto
          154 -176 -4 66 vvcurveto
          hintmask 10011010
          51 78 30 95 vvcurveto
          86 -68 81 -137 -161 -76 -95 -129 vhcurveto
          endchar
        </CharString>
        <CharString name="germandbls.sc">
          420 -12 121 callgsubr
          hstem
          64 147 111 148 88 146 112 147 vstem
          -102 callgsubr
          423 -99 rmoveto
          -44 54 82 -30 84 hhcurveto
          136 79 74 96 93 -62 34 -78 27 hvcurveto
          -54 20 rlineto
          -39 14 -26 13 24 vvcurveto
          29 21 14 37 44 43 -20 -27 38 vhcurveto
          72 94 rlineto
          34 -46 -62 34 -86 hhcurveto
          -124 -83 -66 -100 -82 66 -43 72 -26 hvcurveto
          56 -21 rlineto
          36 -14 28 -15 -28 vvcurveto
          -26 -19 -19 -43 -53 -53 23 37 -49 vhcurveto
          endchar
        </CharString>
        <CharString name="grave">
          -22 146 callsubr
          128 231 vstem
          252 574 rmoveto
          107 13 callgsubr
        </CharString>
        <CharString name="greater">
          -49 104 456 hstem
          345 149 vstem
          494 383 rmoveto
          -460 177 rlineto
          -121 vlineto
          176 -58 135 -47 rlineto
          -4 vlineto
          -135 -47 -176 -58 rlineto
          -121 vlineto
          460 177 rlineto
          endchar
        </CharString>
        <CharString name="greaterequal">
          -49 0 104 hstemhm
          34 460 -149 149 hintmask 11000000
          34 hmoveto
          205 callsubr
          hintmask 10100000
          460 314 rmoveto
          -460 142 rlineto
          -121 vlineto
          172 -46 139 -34 rlineto
          -4 vlineto
          -139 -34 -172 -46 rlineto
          -121 vlineto
          460 142 rlineto
          endchar
        </CharString>
        <CharString name="guillemotleft">
          -97 56 392 hstem
          49 78 110 107 callsubr
          323 -144 rmoveto
          54 44 -111 152 111 152 -54 44 -135 -144 rlineto
          -104 vlineto
          endchar
        </CharString>
        <CharString name="guillemotright">
          -97 56 392 hstem
          165 78 110 79 117 callgsubr
          77 -152 rmoveto
          55 -44 135 144 rlineto
          104 vlineto
          -135 144 -55 -44 111 -152 rlineto
          endchar
        </CharString>
        <CharString name="guilsinglleft">
          -285 56 392 hstem
          49 107 callsubr
          endchar
        </CharString>
        <CharString name="guilsinglright">
          -285 56 392 hstem
          165 78 117 callgsubr
          endchar
        </CharString>
        <CharString name="h">
          -6 21 145 callsubr
          193 -20 hstem
          65 147 153 52 callsubr
          335 hlineto
          -90 callsubr
          -49 -35 -33 -37 vhcurveto
          7 89 rlineto
          172 -147 vlineto
          endchar
        </CharString>
</ttFont>
